<svg width="16" height="16" viewBox="0 0 16 16" fill="" xmlns="http://www.w3.org/2000/svg">
  <path d="M10.9826 4.20483H10.1281V4.99308H10.9826V4.20483Z" fill=""/>
  <path
    d="M6.82652 1.24915V10.8685C6.82652 11.3343 6.74274 11.7949 6.5814 12.2276C6.56921 12.2602 6.55671 12.2924 6.54355 12.3246C6.53699 12.3405 6.53043 12.3565 6.52387 12.3724C6.51043 12.4046 6.49637 12.4362 6.48227 12.4678C6.47477 12.4844 6.46727 12.501 6.45915 12.5175C6.44758 12.5422 6.4354 12.5669 6.42318 12.5913C6.41849 12.601 6.41349 12.6104 6.4088 12.6197C6.40724 12.6226 6.40599 12.6257 6.40443 12.6285C6.4038 12.6297 6.40318 12.6313 6.40224 12.6326C6.17118 13.0844 5.85349 13.4849 5.47205 13.8129H5.47487C5.26568 13.9933 5.03805 14.1503 4.79512 14.2819C4.73165 14.3166 4.66662 14.3494 4.60096 14.3807C4.49933 14.4289 4.39146 14.4739 4.28015 14.5148C4.24918 14.5264 4.21855 14.537 4.1879 14.5474C4.10818 14.5742 4.02593 14.599 3.9434 14.6208C3.92496 14.6261 3.90618 14.6308 3.88743 14.6355C3.82677 14.6505 3.77549 14.6621 3.72608 14.6721C3.69605 14.6784 3.65637 14.6862 3.61352 14.6931C3.55912 14.7031 3.50158 14.7118 3.43843 14.7196C3.37215 14.7284 3.30337 14.7352 3.23518 14.7402C3.17108 14.7449 3.11012 14.7481 3.04977 14.7499H3.04633C3.01255 14.7506 2.97849 14.7509 2.9444 14.7509H7.89618H12.312L12.317 14.7459C14.2991 14.6449 15.894 13.0502 15.9946 11.0679L16 11.0629V1.24915H6.82652ZM9.19002 3.2668H11.9206V5.93108H9.19002V3.2668ZM13.7669 11.9159H9.13655V10.9779H13.7669V11.9159ZM13.7669 9.95421H9.13655V9.01621H13.7669V9.95421ZM13.7669 7.99252H9.13655V7.05452H13.7669V7.99252Z"
    fill=""/>
  <path
    d="M5.88853 4.48682H4.48119V11.0026C4.48119 11.843 3.79738 12.5268 2.95691 12.5268H2.82684C1.98637 12.5268 1.30256 11.843 1.30256 11.0026V8.74916H0V10.8684C0 12.4918 1.32072 13.8128 2.94441 13.8128C2.97097 13.8128 2.99725 13.8128 3.0235 13.8122C3.04506 13.8116 3.06697 13.8107 3.08947 13.8094C3.09353 13.8091 3.09791 13.8091 3.10197 13.8088C3.11666 13.8078 3.132 13.8069 3.14731 13.806C3.15387 13.8057 3.16075 13.8053 3.16731 13.8047C3.17575 13.8041 3.18388 13.8035 3.19231 13.8025C3.23484 13.7994 3.27703 13.795 3.31862 13.7894C3.31988 13.7891 3.32113 13.7891 3.32238 13.7888C3.34581 13.786 3.36772 13.7828 3.38866 13.7797C3.41053 13.7763 3.43119 13.7732 3.45088 13.7694L3.45931 13.7678C3.46181 13.7675 3.464 13.7669 3.4665 13.7666C3.49056 13.7625 3.51466 13.7578 3.53841 13.7532C3.56091 13.7488 3.58437 13.7435 3.61 13.7372C3.61094 13.7372 3.61188 13.7369 3.61281 13.7366C3.62906 13.7328 3.64597 13.7288 3.66409 13.7244L3.67066 13.7228C3.67753 13.7213 3.68409 13.7194 3.69066 13.7175L3.70003 13.715C3.76381 13.6982 3.82728 13.6791 3.88856 13.6584L3.89231 13.6569C3.91356 13.65 3.93484 13.6425 3.95609 13.6347C4.04081 13.6034 4.12306 13.569 4.19997 13.5328C4.50731 13.3873 4.78528 13.1916 5.02572 12.9509C5.06044 12.9162 5.09356 12.8818 5.12391 12.848C5.15769 12.8111 5.18737 12.7767 5.21522 12.7426C5.22959 12.7248 5.24525 12.7057 5.26056 12.6863C5.29059 12.6485 5.31872 12.611 5.34528 12.5735C5.37469 12.5316 5.40094 12.4925 5.42469 12.4553C5.45094 12.4143 5.47597 12.3734 5.49909 12.3333C5.56163 12.2242 5.61697 12.1113 5.6645 11.9953C5.67794 11.9641 5.69012 11.9325 5.70203 11.9009C5.70516 11.8931 5.70797 11.8853 5.71078 11.8775C5.72422 11.8406 5.73703 11.8031 5.74894 11.7655C5.75206 11.7562 5.75488 11.7468 5.75769 11.7374C5.76237 11.7227 5.76675 11.708 5.77112 11.693C5.77644 11.6755 5.78144 11.6573 5.78613 11.6395C5.78737 11.6342 5.78894 11.6286 5.7905 11.6233C5.79394 11.6098 5.79738 11.5961 5.80081 11.5826C5.80863 11.5513 5.81581 11.5198 5.82269 11.4882C5.82613 11.4728 5.82925 11.4572 5.83238 11.4413C5.84206 11.3947 5.85019 11.3474 5.85675 11.2999C5.86175 11.2683 5.86581 11.2365 5.86925 11.2046C5.87081 11.1886 5.87269 11.173 5.87425 11.157C5.87581 11.1402 5.87738 11.1233 5.87894 11.1064C5.87988 11.0914 5.88112 11.076 5.88206 11.061C5.8855 11.0132 5.88737 10.965 5.888 10.9166C5.888 10.9085 5.88831 10.9007 5.88831 10.8925C5.88862 10.8844 5.88863 10.8766 5.88863 10.8685V4.48682H5.88853Z"
    fill=""/>
  <path
    d="M2.2406 6.57825V11.0025C2.2406 11.3258 2.50357 11.5888 2.82685 11.5888H2.95691C3.28023 11.5888 3.54316 11.3258 3.54316 11.0025V6.57825H2.2406Z"
    fill=""/>
</svg>
