<svg width="18" height="20" viewBox="0 0 18 20" fill="" xmlns="http://www.w3.org/2000/svg">
  <path fill-rule="evenodd" clip-rule="evenodd"
        d="M2.5146 14.0001L3.6946 12.8181C4.0726 12.4401 4.2806 11.9381 4.2806 11.4041V6.72708C4.2806 5.37008 4.8706 4.07308 5.9006 3.17108C6.9386 2.26108 8.2606 1.86108 9.6376 2.04208C11.9646 2.35108 13.7196 4.45508 13.7196 6.93708V11.4041C13.7196 11.9381 13.9276 12.4401 14.3046 12.8171L15.4856 14.0001H2.5146ZM10.9996 16.3411C10.9996 17.2401 10.0836 18.0001 8.9996 18.0001C7.9156 18.0001 6.9996 17.2401 6.9996 16.3411V16.0001H10.9996V16.3411ZM17.5206 13.2081L15.7196 11.4041V6.93708C15.7196 3.45608 13.2176 0.499077 9.8996 0.0600774C7.9776 -0.195923 6.0376 0.391077 4.5826 1.66708C3.1186 2.94908 2.2806 4.79308 2.2806 6.72708L2.2796 11.4041L0.478603 13.2081C0.00960291 13.6781 -0.129397 14.3771 0.124603 14.9901C0.379603 15.6041 0.972603 16.0001 1.6366 16.0001H4.9996V16.3411C4.9996 18.3591 6.7936 20.0001 8.9996 20.0001C11.2056 20.0001 12.9996 18.3591 12.9996 16.3411V16.0001H16.3626C17.0266 16.0001 17.6186 15.6041 17.8726 14.9911C18.1276 14.3771 17.9896 13.6771 17.5206 13.2081Z"
        fill=""/>
</svg>
