<svg width="14" height="18" viewBox="0 0 14 18" fill="" xmlns="http://www.w3.org/2000/svg">
  <path fill-rule="evenodd" clip-rule="evenodd"
        d="M6.82124 12.5059C6.99024 12.5059 7.16024 12.5489 7.31324 12.6349L12.0002 15.2859V2.33388C12.0002 2.13288 11.8792 1.99988 11.8002 1.99988H2.20024C2.12024 1.99988 2.00024 2.13288 2.00024 2.33388V15.2339L6.30624 12.6489C6.46524 12.5539 6.64324 12.5059 6.82124 12.5059ZM1.00024 17.9999C0.830244 17.9999 0.660244 17.9569 0.507244 17.8699C0.194244 17.6929 0.000244141 17.3599 0.000244141 16.9999V2.33388C0.000244141 1.04688 0.987244 -0.00012207 2.20024 -0.00012207H11.8002C13.0132 -0.00012207 14.0002 1.04688 14.0002 2.33388V16.9999C14.0002 17.3559 13.8112 17.6849 13.5042 17.8639C13.1962 18.0439 12.8182 18.0469 12.5082 17.8709L6.83624 14.6629L1.51424 17.8579C1.35624 17.9519 1.17824 17.9999 1.00024 17.9999Z"
        fill=""/>
</svg>
