<svg width="16" height="16" viewBox="0 0 16 16" fill="" xmlns="http://www.w3.org/2000/svg">
  <path d="M2.94593 7.46464H4.01673V8.53545H2.94593V7.46464Z" fill="#9DA1A6"/>
  <path
    d="M0 14.2761C0 15.2267 0.773315 16 1.72388 16H14.276C15.2267 16 16 15.2267 16 14.2761V4.95429H0V14.2761ZM6.49377 6.52718H13.5229C13.7817 6.52718 13.9917 6.73702 13.9917 6.99593C13.9917 7.25472 13.7817 7.46468 13.5229 7.46468H6.49377C6.23486 7.46468 6.02502 7.25472 6.02502 6.99593C6.02502 6.73702 6.23486 6.52718 6.49377 6.52718ZM6.49377 8.53549H13.5229C13.7817 8.53549 13.9917 8.74533 13.9917 9.00424C13.9917 9.26315 13.7817 9.47299 13.5229 9.47299H6.49377C6.23486 9.47299 6.02502 9.26315 6.02502 9.00424C6.02502 8.74533 6.23486 8.53549 6.49377 8.53549ZM2.00842 6.99593C2.00842 6.73702 2.21826 6.52718 2.47717 6.52718H4.48547C4.74438 6.52718 4.95422 6.73702 4.95422 6.99593V9.00424C4.95422 9.26315 4.74438 9.47299 4.48547 9.47299H2.47717C2.21826 9.47299 2.00842 9.26315 2.00842 9.00424V6.99593ZM2.47717 10.5438H13.5229C13.7817 10.5438 13.9917 10.7536 13.9917 11.0125C13.9917 11.2715 13.7817 11.4813 13.5229 11.4813H2.47717C2.21826 11.4813 2.00842 11.2715 2.00842 11.0125C2.00842 10.7536 2.21814 10.5438 2.47717 10.5438ZM2.47717 12.5522H13.5229C13.7817 12.5522 13.9917 12.7621 13.9917 13.021C13.9917 13.2798 13.7817 13.4897 13.5229 13.4897H2.47717C2.21826 13.4897 2.00842 13.2798 2.00842 13.021C2.00842 12.7621 2.21814 12.5522 2.47717 12.5522Z"
    fill=""/>
  <path
    d="M14.276 0H1.72388C0.773315 0 0 0.773319 0 1.72389V4.01662H16V1.72389C16 0.773319 15.2267 0 14.276 0ZM11.5145 2.94582H4.48535C4.22656 2.94582 4.0166 2.73598 4.0166 2.47706C4.0166 2.21815 4.22656 2.00831 4.48535 2.00831H11.5145C11.7734 2.00831 11.9833 2.21815 11.9833 2.47706C11.9833 2.73598 11.7734 2.94582 11.5145 2.94582Z"
    fill=""/>
</svg>
