<svg width="12" height="12" viewBox="0 0 12 12" fill="" xmlns="http://www.w3.org/2000/svg">
<path d="M11.5945 2.36359L7.9585 5.99992L11.5945 9.63608C12.1353 10.1771 12.1353 11.0535 11.5945 11.5946C11.3242 11.8648 10.9699 12 10.6158 12C10.2611 12 9.90682 11.865 9.6368 11.5946L6.00006 7.95799L2.36359 11.5945C2.0934 11.8647 1.73908 12 1.38466 12C1.03034 12 0.676261 11.865 0.405829 11.5945C-0.135001 11.0537 -0.135001 10.1773 0.405829 9.63604L4.04168 5.99988L0.405623 2.36359C-0.135208 1.82276 -0.135208 0.946143 0.405623 0.405312C0.946349 -0.135104 1.82245 -0.135104 2.36338 0.405312L6.00002 4.04164L9.63639 0.405312C10.1774 -0.135104 11.0536 -0.135104 11.5942 0.405312C12.1353 0.946143 12.1353 1.82276 11.5945 2.36359Z" fill=""/>
</svg>
