<svg width="18" height="18" viewBox="0 0 18 18" fill="" xmlns="http://www.w3.org/2000/svg">
  <path
    d="M9.30719 16.1346L9.30715 16.135C9.27571 16.4406 9.24962 16.6928 9.21582 16.9062C9.18173 17.1215 9.14372 17.2695 9.09917 17.3721C9.05744 17.4682 9.01878 17.5044 8.98928 17.523C8.95688 17.5434 8.8887 17.5717 8.74004 17.5717C8.27409 17.5717 7.71022 17.3652 7.2635 16.9859C6.82267 16.6116 6.52861 16.0986 6.52861 15.5C6.52861 14.7754 6.62619 13.6708 6.72634 12.7321C6.77607 12.266 6.82582 11.8463 6.86314 11.5431C6.8818 11.3915 6.89734 11.2692 6.90819 11.1849L6.92076 11.0881L6.92405 11.0631L6.92488 11.0569L6.92508 11.0553L6.92513 11.055L6.92514 11.0549L6.98984 10.5697H6.50033H2.3149C1.62697 10.5697 1.17716 10.3541 0.892639 10.0292C0.600021 9.69492 0.429184 9.18431 0.429184 8.49967C0.429184 7.93932 0.537539 7.66845 0.670897 7.33507L0.672579 7.33086L0.672817 7.33027L0.674803 7.32533C0.753397 7.12971 0.845556 6.90031 0.917246 6.59922L0.917542 6.59796C0.992769 6.27772 0.967859 5.94538 0.947042 5.66761C0.946308 5.65781 0.945578 5.64807 0.944857 5.6384L0.944847 5.63828C0.90801 5.14569 0.879675 4.69916 1.13295 4.1916C1.36159 3.73591 1.66649 3.43271 1.9774 3.12695C1.98717 3.11737 1.99701 3.10771 2.00694 3.09799C2.26305 2.84697 2.56981 2.54633 2.71687 2.14859L2.7169 2.1486L2.7185 2.1441L2.73063 2.11014C2.82727 1.84813 2.98183 1.43835 3.33646 1.08691C3.67921 0.747248 4.24429 0.428816 5.22747 0.428816H8.99976C10.6274 0.428816 11.4869 0.624887 11.9525 0.992764C12.3804 1.33084 12.5693 1.89781 12.5672 2.99943V3.00024V8.69594C11.9073 9.17372 11.2882 10.0081 10.7886 10.9175C10.2291 11.936 9.7817 13.118 9.57921 14.1692C9.43157 14.9352 9.36383 15.5884 9.30938 16.1134L9.30719 16.1346ZM17.5638 8.82646L17.5638 8.82649C17.539 9.01339 17.4533 9.1869 17.3199 9.32016L17.6215 9.62198L17.3199 9.32016C17.1865 9.45343 17.013 9.539 16.826 9.56363L16.8251 9.56376C16.7775 9.57014 16.7134 9.5711 16.4998 9.5711C16.287 9.5711 16.2229 9.57014 16.1753 9.56375L16.1741 9.5636C15.987 9.53905 15.8132 9.45345 15.6797 9.32006C15.5462 9.18668 15.4605 9.01297 15.4358 8.82589L15.4357 8.82503C15.4293 8.77739 15.4283 8.71336 15.4283 8.49967V1.50024C15.4283 1.28655 15.4293 1.22253 15.4357 1.17489L15.4358 1.17374C15.4604 0.986551 15.5461 0.812712 15.6796 0.679214C15.8127 0.546139 15.9858 0.460571 16.1723 0.43569C16.2225 0.429621 16.29 0.428816 16.4998 0.428816C16.7131 0.428816 16.7777 0.429752 16.8265 0.436237L16.8266 0.436241C17.0135 0.46102 17.187 0.546728 17.3202 0.68009C17.4535 0.813457 17.5391 0.98704 17.5637 1.17396L17.5638 1.17489C17.5702 1.22253 17.5712 1.28656 17.5712 1.50024V8.49967C17.5712 8.71304 17.5702 8.77757 17.5638 8.82646Z"
    fill="" stroke="" stroke-width="0.857143"/>
</svg>
