<svg width="19" height="22" viewBox="0 0 19 22" fill="none" xmlns="http://www.w3.org/2000/svg">
<path d="M4.8125 14.2078H4.125V16.9578H4.8125C4.939 16.9578 5.04213 16.8546 5.04213 16.7281V14.4374C5.04213 14.3109 4.939 14.2078 4.8125 14.2078V14.2078Z" fill="#9DA1A6"/>
<path d="M9.39697 14.2078H8.9391C8.8126 14.2078 8.70947 14.3109 8.70947 14.4374V16.7295C8.70947 16.856 8.8126 16.9591 8.9391 16.9591H9.39697C9.52347 16.9591 9.6266 16.856 9.6266 16.7295V14.4374C9.62522 14.3109 9.5221 14.2078 9.39697 14.2078Z" fill="#9DA1A6"/>
<path d="M15.8125 0H2.52038C1.13025 0 0 1.13025 0 2.52038V19.4783C0 20.8684 1.13025 21.9986 2.52038 21.9986H15.8125C17.2026 21.9986 18.3329 20.8684 18.3329 19.4783V2.52038C18.3343 1.13025 17.2026 0 15.8125 0ZM6.41713 16.7296C6.41713 17.6138 5.698 18.3343 4.8125 18.3343H3.4375C3.058 18.3343 2.75 18.0263 2.75 17.6468V13.5218C2.75 13.1423 3.058 12.8343 3.4375 12.8343H4.8125C5.69663 12.8343 6.41713 13.5534 6.41713 14.4389V16.7296ZM11 16.7296C11 17.6138 10.2809 18.3343 9.39538 18.3343H8.93751C8.05338 18.3343 7.33288 17.6151 7.33288 16.7296V14.4375C7.33288 13.5534 8.05201 12.8329 8.93751 12.8329H9.39538C10.2795 12.8329 11 13.552 11 14.4375V16.7296ZM13.5218 16.9579H14.8968C15.2763 16.9579 15.5843 17.2659 15.5843 17.6454C15.5843 18.0249 15.2763 18.3329 14.8968 18.3329H13.5218C12.6376 18.3329 11.9171 17.6138 11.9171 16.7283V14.4375C11.9171 13.5534 12.6363 12.8329 13.5218 12.8329H14.8968C15.2763 12.8329 15.5843 13.1409 15.5843 13.5204C15.5843 13.8999 15.2763 14.2079 14.8968 14.2079H13.5218C13.3953 14.2079 13.2921 14.311 13.2921 14.4375V16.7296C13.2921 16.8548 13.3953 16.9579 13.5218 16.9579Z" fill="#9DA1A6"/>
</svg>
