<svg width="16" height="16" viewBox="0 0 16 16" fill="" xmlns="http://www.w3.org/2000/svg">
  <path
    d="M15.9493 7.07868C15.9153 6.99734 15.8667 6.92334 15.8047 6.86134L13.8053 4.86199C13.5447 4.60199 13.1233 4.60199 12.8627 4.86199C12.602 5.12265 12.602 5.54465 12.8627 5.80465L13.7247 6.66665H10.0006C9.63198 6.66665 9.33398 6.9653 9.33398 7.3333C9.33398 7.7013 9.63198 7.99996 10.0006 7.99996H13.7246L12.8626 8.86196C12.602 9.12262 12.602 9.54462 12.8626 9.80462C12.9926 9.93527 13.1633 9.99996 13.334 9.99996C13.5047 9.99996 13.6753 9.93531 13.8053 9.80462L15.8047 7.80527C15.8667 7.74393 15.9153 7.66993 15.9493 7.58793C16.0166 7.42534 16.0166 7.24134 15.9493 7.07868Z"
    fill=""/>
  <path
    d="M11.3338 9.33334C10.9651 9.33334 10.6671 9.632 10.6671 10V13.3333H8.00049V2.66666C8.00049 2.37266 7.80714 2.11266 7.52514 2.028L5.2098 1.33334H10.6671V4.66669C10.6671 5.03469 10.9651 5.33334 11.3338 5.33334C11.7025 5.33334 12.0005 5.03469 12.0005 4.66669V0.666687C12.0005 0.298656 11.7025 0 11.3338 0H0.667145C0.643145 0 0.621801 0.01 0.598488 0.0126563C0.567145 0.016 0.538488 0.0213125 0.508488 0.0286562C0.438488 0.0466563 0.375145 0.074 0.315832 0.111313C0.301176 0.120656 0.283176 0.121312 0.269176 0.131969C0.263801 0.136 0.261801 0.143344 0.256457 0.147344C0.183801 0.204656 0.123145 0.274656 0.0791445 0.358C0.0698008 0.376 0.0678008 0.395344 0.0604883 0.414C0.0391445 0.464656 0.015832 0.514 0.00783203 0.57C0.00448828 0.59 0.0104883 0.608656 0.00983203 0.628C0.00917578 0.641344 0.000488281 0.653344 0.000488281 0.666656V14C0.000488281 14.318 0.225145 14.5913 0.536488 14.6533L7.20314 15.9867C7.24649 15.996 7.29049 16 7.3338 16C7.48646 16 7.63646 15.9474 7.75646 15.8487C7.91046 15.722 8.00046 15.5333 8.00046 15.3333V14.6667H11.3338C11.7025 14.6667 12.0005 14.368 12.0005 14V10C12.0005 9.632 11.7025 9.33334 11.3338 9.33334Z"
    fill=""/>
</svg>
