<svg width="44" height="44" viewBox="0 0 44 44" fill="none" xmlns="http://www.w3.org/2000/svg">
<path fill-rule="evenodd" clip-rule="evenodd" d="M22 0C9.84974 0 0 9.84974 0 22C0 34.1503 9.84974 44 22 44C34.1503 44 44 34.1503 44 22C44 9.84974 34.1503 0 22 0Z" fill="#157DC3"/>
<path d="M23.7852 33V22.9653H27.3239L27.8521 19.0539H23.7852V16.5603C23.7852 15.4241 24.1127 14.66 25.8239 14.66H28V11.1508C27.6197 11.1005 26.331 11 24.831 11C21.6937 11 19.5493 12.8199 19.5493 16.1682V19.0539H16V22.9653H19.5493V33H23.7852Z" fill="white"/>
</svg>
