<svg width="44" height="44" viewBox="0 0 44 44" fill="none" xmlns="http://www.w3.org/2000/svg">
<path fill-rule="evenodd" clip-rule="evenodd" d="M22 0C9.84974 0 0 9.84974 0 22C0 34.1503 9.84974 44 22 44C34.1503 44 44 34.1503 44 22C44 9.84974 34.1503 0 22 0Z" fill="#F5F7F8"/>
<path d="M15.0938 22.0001C15.0938 20.7119 15.4487 19.5052 16.0652 18.4719V14.0891H11.6824C9.94291 16.3483 9 19.1016 9 22.0001C9 24.8986 9.94291 27.6519 11.6824 29.911H16.0652V25.5282C15.4487 24.495 15.0938 23.2882 15.0938 22.0001V22.0001Z" fill="#FBBD00"/>
<path d="M22 28.9063L18.9531 31.9532L22 35C24.8985 35 27.6518 34.0571 29.911 32.3176V27.9395H25.5328C24.4905 28.5583 23.2787 28.9063 22 28.9063V28.9063Z" fill="#0F9D58"/>
<path d="M16.065 25.5281L11.6821 29.9109C12.0265 30.3582 12.4015 30.7865 12.8073 31.1924C15.2627 33.6477 18.5273 34.9999 21.9997 34.9999V28.9062C19.4797 28.9062 17.2711 27.5493 16.065 25.5281Z" fill="#31AA52"/>
<path d="M35 21.9999C35 21.209 34.9284 20.4166 34.7871 19.6448L34.6728 19.0203H22V25.114H28.1675C27.5686 26.3054 26.6477 27.2774 25.5327 27.9394L29.9109 32.3175C30.3582 31.9731 30.7865 31.5981 31.1924 31.1923C33.6477 28.7369 35 25.4723 35 21.9999V21.9999Z" fill="#3C79E6"/>
<path d="M26.8835 17.1165L27.4221 17.6551L31.731 13.3462L31.1924 12.8076C28.737 10.3523 25.4725 9 22 9L18.9531 12.0469L22 15.0938C23.8447 15.0938 25.579 15.8121 26.8835 17.1165Z" fill="#CF2D48"/>
<path d="M22.0002 15.0937V9C18.5278 9 15.2633 10.3523 12.8078 12.8076C12.402 13.2134 12.027 13.6417 11.6826 14.089L16.0654 18.4719C17.2717 16.4506 19.4803 15.0937 22.0002 15.0937V15.0937Z" fill="#EB4132"/>
</svg>
