<svg width="44" height="44" viewBox="0 0 44 44" fill="none" xmlns="http://www.w3.org/2000/svg">
<path fill-rule="evenodd" clip-rule="evenodd" d="M22 0C9.84974 0 0 9.84974 0 22C0 34.1503 9.84974 44 22 44C34.1503 44 44 34.1503 44 22C44 9.84974 34.1503 0 22 0Z" fill="#F5F7F8"/>
<path d="M19.3109 22.2791H16.2643C16.2332 22.2791 16.2176 22.2942 16.2021 22.3244C16.1244 23.6671 15.8601 25.1004 15.4871 26.2772C15.4871 26.2923 15.4871 26.3074 15.5026 26.3225C15.5182 26.3376 15.5337 26.3376 15.5492 26.3376H16.5907C16.6218 26.3376 16.6373 26.3225 16.6373 26.3074C16.9327 25.4022 17.1658 24.2253 17.2591 23.2296H18.2539V26.2923C18.2539 26.3225 18.285 26.3526 18.3161 26.3526H19.3109C19.342 26.3526 19.3731 26.3225 19.3731 26.2923V22.3244C19.3731 22.2942 19.342 22.2791 19.3109 22.2791V22.2791ZM32.1969 22.2791H31.2021C31.171 22.2791 31.1399 22.3093 31.1399 22.3394V25.4022C30.9223 25.4625 30.7047 25.4927 30.456 25.4927C29.8031 25.4927 29.6477 25.2965 29.6477 24.4517V22.3394C29.6477 22.3093 29.6166 22.2791 29.5855 22.2791H28.6062C28.5752 22.2791 28.5441 22.3093 28.5441 22.3394V24.5573C28.5441 25.9453 29.0259 26.4733 30.2539 26.4733C30.9534 26.4733 31.7461 26.2923 32.2125 26.1263C32.228 26.1113 32.2435 26.0962 32.2435 26.0811V22.3394C32.2591 22.2942 32.228 22.2791 32.1969 22.2791V22.2791ZM11.1192 22.2791H10.1088C10.0777 22.2791 10.0622 22.2942 10.0622 22.3244C9.90676 22.9278 9.58033 23.9538 9.1451 25.025L8.13474 22.3244C8.11919 22.3093 8.10365 22.2942 8.0881 22.2942H7.0622C7.04665 22.2942 7.03111 22.3093 7.01556 22.3244C7.00002 22.3394 7.00002 22.3545 7.01556 22.3696L8.53888 26.413C8.38344 26.7298 8.24354 26.9863 8.10365 27.2277C7.99484 27.4088 7.90157 27.5898 7.80831 27.7708C7.79277 27.7859 7.79277 27.801 7.80831 27.8161C7.82385 27.8312 7.8394 27.8463 7.85494 27.8463H8.95857C8.97411 27.8463 9.0052 27.8312 9.0052 27.8161C9.19173 27.4691 9.42489 26.9863 9.64251 26.4884C10.2954 25.0099 10.8083 23.6219 11.1969 22.3545C11.1969 22.3394 11.1969 22.3244 11.1814 22.3093C11.1503 22.2791 11.1347 22.2791 11.1192 22.2791V22.2791ZM14.741 25.4022C14.741 25.3871 14.7254 25.372 14.7099 25.372H14.6632C14.4145 25.4625 13.9638 25.5228 13.6529 25.5228C12.9534 25.5228 12.627 25.3418 12.627 24.3159C12.627 23.4861 12.7358 23.1089 13.6529 23.1089C13.9171 23.1089 14.1503 23.1391 14.4612 23.2296C14.4922 23.2296 14.5078 23.2296 14.5233 23.1994C14.6321 22.9882 14.772 22.7317 14.9275 22.4149V22.3696C14.9275 22.3545 14.9119 22.3394 14.8964 22.3394C14.4922 22.2187 14.0104 22.1433 13.5752 22.1433C12.1296 22.1433 11.4767 22.8071 11.4767 24.3008C11.4767 25.8095 12.1296 26.4884 13.5752 26.4884C13.9327 26.4884 14.6632 26.413 15.0052 26.2772C15.0363 26.2621 15.0518 26.2319 15.0363 26.2018L14.741 25.4022V25.4022ZM24.2073 22.2791H23.1969C23.1658 22.2791 23.1503 22.2942 23.1503 22.3244C22.9948 22.9429 22.6684 23.9538 22.2332 25.025L21.2228 22.3244C21.2073 22.3093 21.1917 22.2942 21.1762 22.2942H20.1503C20.1347 22.2942 20.1192 22.3093 20.1036 22.3244C20.0881 22.3394 20.0881 22.3545 20.1036 22.3696L21.627 26.413C21.4715 26.7298 21.3316 26.9863 21.1917 27.2277C21.0829 27.4088 20.9897 27.5898 20.8964 27.7859C20.8809 27.801 20.8809 27.8161 20.8964 27.8312C20.9119 27.8463 20.9275 27.8614 20.943 27.8614H22.0467C22.0622 27.8614 22.0933 27.8463 22.0933 27.8312C22.2798 27.4842 22.513 27.0014 22.7306 26.5035C23.3679 25.025 23.8964 23.6369 24.285 22.3696C24.285 22.3545 24.285 22.3394 24.2695 22.3244C24.2384 22.2791 24.2228 22.2791 24.2073 22.2791V22.2791ZM27.9378 22.2791H25C24.9689 22.2791 24.9378 22.3093 24.9378 22.3394V26.3074C24.9378 26.3376 24.9689 26.3677 25 26.3677H25.9948C26.0259 26.3677 26.057 26.3376 26.057 26.3074V23.2447H27.5959C27.6114 23.2447 27.6425 23.2296 27.6425 23.2145C27.7669 22.9429 27.8757 22.6563 28 22.3696V22.3244C27.9689 22.2791 27.9534 22.2791 27.9378 22.2791" fill="#EF4058"/>
<path d="M12.3005 16.184C10.8705 16.184 10.3109 16.7875 10.3109 18.3113C10.3109 19.8653 10.8705 20.4688 12.3005 20.4688C13.7461 20.4688 14.3057 19.8653 14.3057 18.3113C14.3057 16.7724 13.7461 16.184 12.3005 16.184ZM12.3005 19.5786C11.6477 19.5786 11.4456 19.4126 11.4456 18.3264C11.4456 17.1797 11.6632 17.0741 12.3005 17.0741C12.9534 17.0741 13.171 17.1797 13.171 18.3264C13.171 19.4126 12.9689 19.5786 12.3005 19.5786ZM18.285 19.4126C18.285 19.3976 18.2694 19.3825 18.2539 19.3825H18.2073C17.9585 19.473 17.5078 19.5333 17.1969 19.5333C16.4974 19.5333 16.171 19.3523 16.171 18.3264C16.171 17.4966 16.2798 17.1194 17.1969 17.1194C17.4611 17.1194 17.6943 17.1496 18.0052 17.2401C18.0363 17.2401 18.0518 17.2401 18.0674 17.2099C18.1762 16.9987 18.3161 16.7422 18.4715 16.4254V16.3801C18.4715 16.365 18.456 16.3499 18.4404 16.3499C18.0363 16.2292 17.5544 16.1538 17.1192 16.1538C15.6736 16.1538 15.0207 16.8176 15.0207 18.3113C15.0207 19.82 15.6736 20.4989 17.1192 20.4989C17.4767 20.4989 18.2073 20.4235 18.5492 20.2877C18.5803 20.2726 18.5959 20.2424 18.5803 20.2123L18.285 19.4126V19.4126ZM10 16.2896H7.06218C7.03109 16.2896 7 16.3198 7 16.3499V20.3179C7 20.3481 7.03109 20.3782 7.06218 20.3782H8.05699C8.08808 20.3782 8.11917 20.3481 8.11917 20.3179V17.2401H9.64249C9.65803 17.2401 9.68912 17.225 9.68912 17.2099C9.81347 16.9383 9.92228 16.6517 10.0466 16.365V16.3198C10.0311 16.3047 10.0155 16.2896 10 16.2896Z" fill="#1466AC"/>
<path d="M35.0476 23C35.0345 23.592 35.0112 24.1502 34.9816 24.6478V24.7685C34.9816 24.8289 34.9816 24.8741 34.9661 24.9345V24.9646C34.9661 25.0099 34.9661 25.0552 34.9505 25.1004C34.9505 25.1381 34.9466 25.1759 34.9428 25.2136C34.9389 25.2513 34.935 25.289 34.935 25.3267C34.935 25.372 34.935 25.4022 34.9194 25.4323V25.4927C34.9194 25.5229 34.9156 25.5493 34.9117 25.5757C34.9078 25.6021 34.9039 25.6285 34.9039 25.6586V25.7492C34.9039 25.7944 34.9039 25.8397 34.8884 25.8699C34.8417 26.4884 34.7951 26.8656 34.7951 26.8656C34.7018 27.7859 34.1267 28.9778 33.4272 29.8529C33.1474 30.1999 32.8521 30.4866 32.5567 30.6978C32.5502 30.6978 32.4755 30.7508 32.3416 30.8457C32.156 30.9772 31.8569 31.1892 31.4687 31.4521C30.707 31.9651 29.5878 32.6742 28.3599 33.3833C26.2614 34.5903 24.3184 35.4653 23.9764 35.6162L23.9143 35.6464C23.8987 35.6539 23.8793 35.6615 23.8599 35.669C23.8404 35.6766 23.821 35.6841 23.8055 35.6917C23.4479 35.8274 23.0127 35.933 22.5308 35.9934C22.3132 36.0236 22.0801 36.0387 21.8469 36.0387H21.536C20.7433 36.0236 19.9972 35.8878 19.4687 35.6464C19.4687 35.6464 19.3599 35.6011 19.1578 35.5106C19.15 35.5031 19.1384 35.4993 19.1267 35.4955C19.115 35.4917 19.1034 35.488 19.0956 35.4804C19.0878 35.4729 19.0801 35.4691 19.0723 35.4653C19.0645 35.4616 19.0567 35.4578 19.049 35.4503C19.0412 35.4503 19.0373 35.4465 19.0334 35.4427C19.0295 35.4389 19.0257 35.4352 19.0179 35.4352C19.0101 35.4352 19.0023 35.4314 18.9946 35.4276C18.9868 35.4239 18.979 35.4201 18.9713 35.4201C18.9616 35.4108 18.952 35.4072 18.9388 35.4023C18.9306 35.3992 18.921 35.3957 18.9091 35.3899H18.8935C18.1008 35.0882 16.6086 34.364 15.0231 33.4587C12.902 32.2567 11.6805 31.3836 11.0003 30.8974C10.9378 30.8527 10.8798 30.8113 10.8262 30.7732C10.6497 30.6482 10.5156 30.5331 10.3997 30.4337C10.1381 30.2091 9.96926 30.0641 9.61374 30.0641H8.41685C7.95053 30.0641 7.95053 30.4564 8.05934 30.6073C8.5412 31.3013 9.0697 31.8444 9.66037 32.2669C9.73809 32.3272 11.6345 33.6851 14.0282 35.058C14.1526 35.1334 14.277 35.2089 14.4169 35.2692C16.2405 36.2842 17.8549 37.0352 18.436 37.3055C18.5631 37.3646 18.6408 37.4008 18.6604 37.4116C19.422 37.7435 20.4169 37.9396 21.4738 37.9698H21.6915C21.8314 37.9698 21.9713 37.9698 22.1112 37.9547C22.2666 37.9547 22.422 37.9396 22.5775 37.9246C23.3702 37.8491 24.1163 37.6681 24.707 37.4116C24.707 37.4116 24.7225 37.4116 24.7225 37.3965C24.7346 37.391 24.7502 37.3839 24.7695 37.3752C25.1736 37.1914 27.1424 36.2966 29.3236 35.058C30.6137 34.3187 31.7485 33.5945 32.5412 33.0665C33.2251 32.5988 33.6604 32.297 33.6915 32.2669C34.0645 31.9953 34.422 31.6483 34.764 31.256C35.6345 30.2452 36.3339 28.9024 36.5982 27.6803C36.5982 27.6652 36.5982 27.6502 36.6137 27.6351C36.6225 27.5756 36.6362 27.5162 36.6492 27.4594C36.6594 27.4154 36.6691 27.3729 36.6759 27.3333V27.2881C36.6915 27.2277 36.6915 27.1674 36.6915 27.1221C36.6915 27.1129 36.6958 27.073 36.7031 27.0052C36.7199 26.8504 36.7523 26.5507 36.7847 26.1414V26.0811C36.8158 26.0358 36.8158 25.9906 36.8158 25.9302V25.8699C36.8158 25.8397 36.8158 25.7944 36.8314 25.7643C36.878 25.206 36.9091 24.5271 36.9402 23.7426V23.6822C36.9466 23.462 36.9531 23.2338 36.9585 23H35.0476Z" fill="#F04159"/>
<path d="M36.9585 23C36.966 22.6733 36.9713 22.3354 36.9713 21.9924C36.9713 21.4041 36.9557 20.8307 36.9402 20.3027V20.2423C36.9091 19.4729 36.878 18.7789 36.8314 18.2206C36.8314 18.1905 36.8314 18.1452 36.8158 18.1151V18.0547C36.8158 18.0245 36.8119 17.9981 36.808 17.9717C36.8042 17.9453 36.8003 17.9189 36.8003 17.8887V17.8284C36.7536 17.24 36.7225 16.8779 36.707 16.8477C36.707 16.8154 36.7025 16.783 36.6984 16.753C36.6948 16.727 36.6915 16.7028 36.6915 16.6818V16.6365C36.6759 16.5309 36.6604 16.4404 36.6293 16.3347C36.6293 16.3196 36.6293 16.3046 36.6137 16.2895C36.3495 15.0674 35.65 13.7247 34.7795 12.7138C34.4376 12.3215 34.0801 11.9745 33.707 11.7029C33.6759 11.6728 33.2407 11.371 32.5567 10.9033C31.764 10.3753 30.6293 9.63605 29.3391 8.9118C27.0386 7.59924 25.0023 6.67896 24.7225 6.5733C24.7149 6.5733 24.7111 6.5697 24.7091 6.56598C24.707 6.56213 24.707 6.55823 24.707 6.55823C24.1008 6.30176 23.3702 6.12073 22.5775 6.04529C22.422 6.03015 22.2666 6.01508 22.1112 6.01508C21.9557 6 21.8158 6 21.6759 6H21.4583C20.4013 6.03015 19.422 6.21124 18.6448 6.55823C18.536 6.60352 16.4687 7.5238 14.1215 8.86658L14.0283 8.9118C11.6189 10.2848 9.73809 11.6426 9.66037 11.7029C9.0697 12.1254 8.5412 12.6686 8.05933 13.3625C7.95053 13.5134 7.95053 13.9057 8.41685 13.9057H9.61374C9.96925 13.9057 10.1381 13.7607 10.3997 13.5362C10.5156 13.4367 10.6497 13.3216 10.8262 13.1966L10.8912 13.1505C11.5475 12.684 12.7983 11.795 15.0231 10.5111C16.6863 9.56061 18.2407 8.80621 19.0023 8.45923C19.0101 8.45923 19.0179 8.45544 19.0257 8.45166C19.0334 8.44788 19.0412 8.44415 19.049 8.44415C19.049 8.44415 19.0645 8.44415 19.0645 8.42902C19.0645 8.42902 19.0801 8.42902 19.0801 8.41394C19.0956 8.41394 19.1112 8.39886 19.1112 8.39886C19.1189 8.39886 19.1267 8.39514 19.1345 8.39136C19.1422 8.38757 19.15 8.38379 19.1578 8.38379C19.3443 8.29327 19.4687 8.24799 19.4687 8.24799C19.9972 8.02167 20.7433 7.87079 21.536 7.85571H21.8469C22.0801 7.85571 22.3132 7.87079 22.5308 7.901C23.0127 7.96136 23.4479 8.05188 23.8055 8.20276C23.821 8.21033 23.8404 8.21783 23.8599 8.22534C23.8793 8.23291 23.8987 8.24048 23.9143 8.24799C23.9143 8.24799 23.9298 8.26306 23.9764 8.2782C24.3339 8.42902 26.2614 9.31921 28.3599 10.5111C29.6034 11.2202 30.707 11.9293 31.4687 12.4423C32.1371 12.8948 32.5412 13.1815 32.5567 13.1966C32.8521 13.4078 33.1474 13.7096 33.4272 14.0415C34.1267 14.9166 34.7018 16.1085 34.7951 17.0287C34.7951 17.0438 34.8417 17.4059 34.8884 18.0245C34.8884 18.0698 34.8884 18.1 34.9039 18.1452V18.2357C34.9039 18.2659 34.9078 18.2924 34.9117 18.3188C34.9156 18.3452 34.9194 18.3715 34.9194 18.4017V18.462C34.9194 18.4922 34.9194 18.5375 34.935 18.5676C34.935 18.6053 34.9389 18.6431 34.9428 18.6808C34.9466 18.7185 34.9505 18.7562 34.9505 18.7939C34.9505 18.8392 34.9505 18.8845 34.9661 18.9297V18.9599C34.9661 19.0203 34.9661 19.0656 34.9816 19.1259V19.2466C35.0283 20.0311 35.0593 20.9666 35.0593 21.9472C35.0593 22.3059 35.0552 22.6586 35.0476 23H36.9585Z" fill="#1466AC"/>
</svg>
