<svg width="20" height="18" viewBox="0 0 20 18" fill="" xmlns="http://www.w3.org/2000/svg">
  <path fill-rule="evenodd" clip-rule="evenodd"
        d="M9.99976 -0.00012207C12.5808 -0.00012207 14.8548 1.66088 15.6748 4.04488C18.1138 4.37588 19.9998 6.47188 19.9998 8.99988C19.9998 10.2209 19.5558 11.3959 18.7498 12.3089C18.5518 12.5319 18.2768 12.6469 17.9998 12.6469C17.7648 12.6469 17.5288 12.5649 17.3378 12.3969C16.9248 12.0299 16.8848 11.3989 17.2508 10.9839C17.7338 10.4379 17.9998 9.73188 17.9998 8.99988C17.9998 7.34588 16.6538 5.99988 14.9998 5.99988H14.8998C14.4238 5.99988 14.0138 5.66388 13.9198 5.19688C13.5458 3.34488 11.8978 1.99988 9.99976 1.99988C8.10276 1.99988 6.45376 3.34488 6.08076 5.19688C5.98676 5.66388 5.57576 5.99988 5.09976 5.99988H4.99976C3.34576 5.99988 1.99976 7.34588 1.99976 8.99988C1.99976 9.73188 2.26576 10.4379 2.74976 10.9839C3.11476 11.3989 3.07576 12.0299 2.66176 12.3969C2.24776 12.7629 1.61576 12.7219 1.25076 12.3089C0.443756 11.3959 -0.000244141 10.2209 -0.000244141 8.99988C-0.000244141 6.47188 1.88576 4.37588 4.32476 4.04488C5.14576 1.66088 7.41976 -0.00012207 9.99976 -0.00012207ZM9.30496 8.27998C9.69896 7.90398 10.322 7.90698 10.707 8.29298L13.707 11.293C14.098 11.684 14.098 12.316 13.707 12.707C13.512 12.902 13.256 13 13 13C12.744 13 12.488 12.902 12.293 12.707L11 11.414V17C11 17.553 10.552 18 9.99996 18C9.44796 18 8.99996 17.553 8.99996 17V11.356L7.69496 12.616C7.29796 13.001 6.66496 12.988 6.28096 12.591C5.89696 12.193 5.90796 11.561 6.30496 11.177L9.30496 8.27998Z"
        fill=""/>
</svg>
