<svg width="16" height="16" viewBox="0 0 16 16" fill="" xmlns="http://www.w3.org/2000/svg">

    <path
      d="M8 2.30467C7.724 2.30467 7.5 2.08067 7.5 1.80467V0.5C7.5 0.224 7.724 0 8 0C8.276 0 8.5 0.224 8.5 0.5V1.80467C8.5 2.08067 8.276 2.30467 8 2.30467Z"
      fill=""/>
    <path
      d="M12.3807 4.11933C12.2527 4.11933 12.1247 4.07066 12.0274 3.97266C11.832 3.77733 11.832 3.46066 12.0274 3.26533L12.95 2.34267C13.1453 2.14733 13.462 2.14733 13.6573 2.34267C13.8527 2.538 13.8527 2.85467 13.6573 3.05L12.7347 3.97266C12.6367 4.07 12.5087 4.11933 12.3807 4.11933Z"
      fill=""/>
    <path
      d="M15.5 8.5H14.1953C13.9193 8.5 13.6953 8.276 13.6953 8C13.6953 7.724 13.9193 7.5 14.1953 7.5H15.5C15.776 7.5 16 7.724 16 8C16 8.276 15.776 8.5 15.5 8.5Z"
      fill=""/>
    <path
      d="M13.3033 13.8033C13.1753 13.8033 13.0473 13.7546 12.95 13.6566L12.0274 12.734C11.832 12.5386 11.832 12.222 12.0274 12.0266C12.2227 11.8313 12.5394 11.8313 12.7347 12.0266L13.6573 12.9493C13.8527 13.1446 13.8527 13.4613 13.6573 13.6566C13.5593 13.7546 13.4313 13.8033 13.3033 13.8033Z"
      fill=""/>
    <path
      d="M2.69667 13.8033C2.56867 13.8033 2.44067 13.7546 2.34334 13.6566C2.14801 13.4613 2.14801 13.1446 2.34334 12.9493L3.266 12.0266C3.46133 11.8313 3.778 11.8313 3.97333 12.0266C4.16866 12.222 4.16866 12.5386 3.97333 12.734L3.05067 13.6566C2.95267 13.7546 2.82467 13.8033 2.69667 13.8033Z"
      fill=""/>
    <path
      d="M1.80467 8.5H0.5C0.224 8.5 0 8.276 0 8C0 7.724 0.224 7.5 0.5 7.5H1.80467C2.08067 7.5 2.30467 7.724 2.30467 8C2.30467 8.276 2.08067 8.5 1.80467 8.5Z"
      fill=""/>
    <path
      d="M3.61933 4.11933C3.49133 4.11933 3.36333 4.07066 3.266 3.97266L2.34334 3.05C2.14801 2.85467 2.14801 2.538 2.34334 2.34267C2.53867 2.14733 2.85534 2.14733 3.05067 2.34267L3.97333 3.26533C4.16866 3.46066 4.16866 3.77733 3.97333 3.97266C3.87467 4.07 3.74733 4.11933 3.61933 4.11933Z"
      fill=""/>
    <path d="M10 14V14.8333C10 15.4733 9.47333 16 8.83333 16H7.16667C6.60667 16 6 15.5733 6 14.64V14H10Z"
          fill=""/>
    <path
      d="M10.94 4.37344C9.84665 3.48677 8.40665 3.1401 6.99998 3.4401C5.23332 3.80677 3.79998 5.24677 3.43332 7.01344C3.05998 8.82677 3.73998 10.6268 5.19332 11.7268C5.58665 12.0201 5.85998 12.4734 5.95332 13.0001V13.0068C5.96665 13.0001 5.98665 13.0001 5.99998 13.0001H9.99998C10.0133 13.0001 10.02 13.0001 10.0333 13.0068V13.0001C10.1266 12.4934 10.4266 12.0268 10.8866 11.6668C12.0133 10.7734 12.6666 9.4401 12.6666 8.0001C12.6666 6.58677 12.04 5.26677 10.94 4.37344ZM10.5 8.33344C10.2266 8.33344 9.99998 8.10677 9.99998 7.83344C9.99998 6.8201 9.17998 6.0001 8.16665 6.0001C7.89332 6.0001 7.66665 5.77344 7.66665 5.5001C7.66665 5.22677 7.89332 5.0001 8.16665 5.0001C9.72665 5.0001 11 6.27344 11 7.83344C11 8.10677 10.7733 8.33344 10.5 8.33344Z"
      fill=""/>
    <path d="M5.95337 13H6.00003C5.9867 13 5.9667 13 5.95337 13.0067V13Z" fill=""/>
    <path d="M10.0333 13V13.0067C10.02 13 10.0133 13 10 13H10.0333Z" fill=""/>

</svg>
