<svg width="18" height="18" viewBox="0 0 18 18" fill="" xmlns="http://www.w3.org/2000/svg">
  <path
    d="M8.69281 1.8654L8.69285 1.86503C8.72429 1.55936 8.75038 1.30721 8.78418 1.09375C8.81827 0.878503 8.85628 0.730544 8.90083 0.627931C8.94256 0.531807 8.98122 0.495612 9.01072 0.477025C9.04312 0.456615 9.1113 0.428327 9.25996 0.428327C9.72591 0.428327 10.2898 0.634803 10.7365 1.01409C11.1773 1.38839 11.4714 1.90143 11.4714 2.50004C11.4714 3.22456 11.3738 4.32925 11.2737 5.26793C11.2239 5.73403 11.1742 6.15374 11.1369 6.45694C11.1182 6.60849 11.1027 6.73081 11.0918 6.81512L11.0792 6.91194L11.076 6.93689L11.0751 6.94314L11.0749 6.94467L11.0749 6.94502L11.0749 6.94511L11.0102 7.43033H11.4997H15.6851C16.373 7.43033 16.8228 7.64586 17.1074 7.97085C17.4 8.30508 17.5708 8.81569 17.5708 9.50033C17.5708 10.0607 17.4625 10.3316 17.3291 10.6649L17.3274 10.6691L17.3272 10.6697L17.3252 10.6747C17.2466 10.8703 17.1544 11.0997 17.0828 11.4008L17.0825 11.402C17.0072 11.7223 17.0321 12.0546 17.053 12.3324C17.0537 12.3422 17.0544 12.3519 17.0551 12.3616L17.0552 12.3617C17.092 12.8543 17.1203 13.3008 16.8671 13.8084C16.6384 14.2641 16.3335 14.5673 16.0226 14.8731C16.0128 14.8826 16.003 14.8923 15.9931 14.902C15.7369 15.153 15.4302 15.4537 15.2831 15.8514L15.2831 15.8514L15.2815 15.8559L15.2694 15.8898C15.1728 16.1518 15.0182 16.5616 14.6635 16.9131C14.3208 17.2528 13.7557 17.5712 12.7725 17.5712H9.00024C7.37264 17.5712 6.51306 17.3751 6.04748 17.0072C5.61961 16.6692 5.43072 16.1022 5.43282 15.0006V14.9998V9.30406C6.09266 8.82628 6.71178 7.99192 7.21137 7.08254C7.7709 6.06404 8.21828 4.88204 8.42078 3.83087C8.56843 3.06488 8.63617 2.41165 8.69062 1.8866L8.69281 1.8654ZM0.436285 16.826L0.436161 16.8251C0.429776 16.7775 0.428816 16.7134 0.428816 16.4998V9.50033C0.428816 9.28696 0.429752 9.22243 0.436237 9.17354L0.011387 9.11718L0.436241 9.17351C0.461019 8.98661 0.546727 8.8131 0.680092 8.67984C0.813457 8.54657 0.987038 8.461 1.17396 8.43637L1.17489 8.43624C1.22253 8.42986 1.28656 8.4289 1.50024 8.4289C1.71303 8.4289 1.7771 8.42986 1.82474 8.43625L1.82593 8.4364C2.01303 8.46095 2.18681 8.54655 2.3203 8.67994C2.45378 8.81332 2.53952 8.98703 2.56421 9.17412L2.56433 9.17497C2.57071 9.22261 2.57167 9.28664 2.57167 9.50033V16.4998C2.57167 16.7134 2.57071 16.7775 2.56433 16.8251L2.56418 16.8263C2.5396 17.0134 2.45391 17.1873 2.32042 17.3208C2.18733 17.4539 2.01416 17.5394 1.82762 17.5643C1.77747 17.5704 1.70998 17.5712 1.50024 17.5712C1.28688 17.5712 1.22235 17.5702 1.17346 17.5638L1.17343 17.5638C0.986529 17.539 0.813014 17.4533 0.679753 17.3199C0.546492 17.1865 0.460918 17.013 0.436285 16.826Z"
    fill="" stroke="" stroke-width="0.857143"/>
</svg>
