<svg width="18" height="18" viewBox="0 0 18 18" fill="" xmlns="http://www.w3.org/2000/svg">
  <path fill-rule="evenodd" clip-rule="evenodd"
        d="M17.3032 10.4258C16.7772 10.2588 16.2152 10.5498 16.0472 11.0758C15.1102 14.0218 12.3522 15.9998 9.18424 15.9998C5.22224 15.9998 2.00024 12.8598 2.00024 8.99976C2.00024 5.14076 5.22224 1.99976 9.18424 1.99976C10.9122 1.99976 12.5422 2.60176 13.8292 3.66976L11.6632 3.31276C11.1132 3.21276 10.6032 3.59176 10.5132 4.13576C10.4232 4.68076 10.7922 5.19576 11.3372 5.28476L15.5832 5.98676C15.6382 5.99576 15.6942 5.99976 15.7472 5.99976C15.8662 5.99976 15.9822 5.97876 16.0902 5.93876C16.1272 5.92476 16.1572 5.89876 16.1932 5.87976C16.2592 5.84576 16.3282 5.81576 16.3852 5.76776C16.4212 5.73876 16.4442 5.69676 16.4752 5.66276C16.5222 5.61376 16.5722 5.56676 16.6072 5.50676C16.6322 5.46376 16.6422 5.41276 16.6612 5.36476C16.6852 5.30576 16.7172 5.25076 16.7292 5.18576L17.4832 1.18576C17.5852 0.642756 17.2282 0.118756 16.6852 0.0177559C16.1442 -0.0802441 15.6192 0.272756 15.5172 0.814756L15.2452 2.25576C13.5812 0.814756 11.4482 -0.000244141 9.18424 -0.000244141C4.12024 -0.000244141 0.000244141 4.03676 0.000244141 8.99976C0.000244141 13.9628 4.12024 17.9998 9.18424 17.9998C13.2262 17.9998 16.7502 15.4608 17.9532 11.6818C18.1202 11.1558 17.8292 10.5938 17.3032 10.4258Z"
        fill=""/>
</svg>
