<svg width="138" height="14" viewBox="0 0 138 14" fill="none" xmlns="http://www.w3.org/2000/svg">
<path d="M0.413086 3.46387V0.396484H11.4697V3.46387H7.68164V13H4.19238V3.46387H0.413086ZM17.499 13V0.396484H23.458C25.292 0.396484 26.6602 0.847656 27.5625 1.75C28.3066 2.49414 28.6787 3.49023 28.6787 4.73828C28.6787 5.66992 28.4502 6.46094 27.9932 7.11133C27.5361 7.76172 26.9004 8.25977 26.0859 8.60547L29.0918 13H25.0576L22.5176 9.18555H20.9883V13H17.499ZM20.9883 6.45215H23.291C23.8828 6.45215 24.3428 6.31738 24.6709 6.04785C24.999 5.77246 25.1631 5.39453 25.1631 4.91406C25.1631 4.42773 24.9961 4.05859 24.6621 3.80664C24.334 3.54883 23.8711 3.41992 23.2734 3.41992H20.9883V6.45215ZM34.7783 7.47168V0.396484H38.3203V7.40137C38.3203 8.28613 38.5254 8.9541 38.9355 9.40527C39.3457 9.85645 39.9141 10.082 40.6406 10.082C41.3672 10.082 41.9355 9.86523 42.3457 9.43164C42.7559 8.99805 42.9609 8.35059 42.9609 7.48926V0.396484H46.5117V7.38379C46.5117 8.38574 46.374 9.26172 46.0986 10.0117C45.8232 10.7617 45.4248 11.3711 44.9033 11.8398C44.3818 12.3086 43.7607 12.6602 43.04 12.8945C42.3252 13.123 41.5137 13.2373 40.6055 13.2373C38.7598 13.2373 37.3271 12.7598 36.3076 11.8047C35.2881 10.8438 34.7783 9.39941 34.7783 7.47168ZM53.0771 13V0.396484H63.2109V3.36719H56.5312V5.27441H62.5781V8.03418H56.5312V10.0293H63.2988V13H53.0771ZM70.3389 13V0.396484H71.2705V6.23242H79.3389V0.396484H80.2705V13H79.3389V7.09375H71.2705V13H70.3389ZM87.9609 6.69824C87.9609 5.84277 88.1133 5.02246 88.418 4.2373C88.7285 3.44629 89.1533 2.75195 89.6924 2.1543C90.2373 1.55664 90.9111 1.0791 91.7139 0.72168C92.5166 0.364258 93.3809 0.185547 94.3066 0.185547C95.2383 0.185547 96.1025 0.364258 96.8994 0.72168C97.6963 1.07324 98.3643 1.54785 98.9033 2.14551C99.4424 2.7373 99.8643 3.42871 100.169 4.21973C100.474 5.00488 100.626 5.83105 100.626 6.69824C100.626 7.55371 100.471 8.37695 100.16 9.16797C99.8555 9.95312 99.4307 10.6475 98.8857 11.251C98.3408 11.8486 97.667 12.3262 96.8643 12.6836C96.0615 13.041 95.1973 13.2197 94.2715 13.2197C93.3398 13.2197 92.4756 13.0439 91.6787 12.6924C90.8818 12.335 90.2139 11.8574 89.6748 11.2598C89.1416 10.6621 88.7227 9.9707 88.418 9.18555C88.1133 8.39453 87.9609 7.56543 87.9609 6.69824ZM88.9277 6.69824C88.9277 7.72949 89.1562 8.67871 89.6133 9.5459C90.0762 10.4072 90.7207 11.0928 91.5469 11.6025C92.373 12.1123 93.293 12.3672 94.3066 12.3672C95.3203 12.3672 96.2373 12.1152 97.0576 11.6113C97.8838 11.1016 98.5225 10.416 98.9736 9.55469C99.4307 8.69336 99.6592 7.74121 99.6592 6.69824C99.6592 5.93066 99.5215 5.19824 99.2461 4.50098C98.9766 3.80371 98.6045 3.20312 98.1299 2.69922C97.6611 2.18945 97.0898 1.78516 96.416 1.48633C95.748 1.18164 95.0332 1.0293 94.2715 1.0293C93.2578 1.0293 92.3408 1.28418 91.5205 1.79395C90.7002 2.29785 90.0615 2.98047 89.6045 3.8418C89.1533 4.70312 88.9277 5.65527 88.9277 6.69824ZM108.308 13V0.396484H109.187L114.249 7.84961L119.303 0.396484H120.19V13H119.25V2.05762L114.267 9.30859H114.196L109.204 2.05762V13H108.308ZM128.435 13V0.396484H137.399V1.2666H129.366V6.21484H136.591V7.07617H129.366V12.1387H137.487V13H128.435Z" fill="#222222"/>
</svg>
