<svg width="170" height="30" viewBox="0 0 170 30" fill="none" xmlns="http://www.w3.org/2000/svg">
<path d="M34.4131 14.4639V11.3965H45.4697V14.4639H41.6816V24H38.1924V14.4639H34.4131ZM50.599 24V11.3965H56.558C58.392 11.3965 59.7602 11.8477 60.6625 12.75C61.4066 13.4941 61.7787 14.4902 61.7787 15.7383C61.7787 16.6699 61.5502 17.4609 61.0932 18.1113C60.6361 18.7617 60.0004 19.2598 59.1859 19.6055L62.1918 24H58.1576L55.6176 20.1855H54.0883V24H50.599ZM54.0883 17.4521H56.391C56.9828 17.4521 57.4428 17.3174 57.7709 17.0479C58.099 16.7725 58.2631 16.3945 58.2631 15.9141C58.2631 15.4277 58.0961 15.0586 57.7621 14.8066C57.434 14.5488 56.9711 14.4199 56.3734 14.4199H54.0883V17.4521ZM66.9783 18.4717V11.3965H70.5203V18.4014C70.5203 19.2861 70.7254 19.9541 71.1355 20.4053C71.5457 20.8564 72.1141 21.082 72.8406 21.082C73.5672 21.082 74.1355 20.8652 74.5457 20.4316C74.9559 19.998 75.1609 19.3506 75.1609 18.4893V11.3965H78.7117V18.3838C78.7117 19.3857 78.574 20.2617 78.2986 21.0117C78.0232 21.7617 77.6248 22.3711 77.1033 22.8398C76.5818 23.3086 75.9607 23.6602 75.24 23.8945C74.5252 24.123 73.7137 24.2373 72.8055 24.2373C70.9598 24.2373 69.5271 23.7598 68.5076 22.8047C67.4881 21.8438 66.9783 20.3994 66.9783 18.4717ZM84.3771 24V11.3965H94.5109V14.3672H87.8312V16.2744H93.8781V19.0342H87.8312V21.0293H94.5988V24H84.3771ZM100.739 24V11.3965H101.671V17.2324H109.739V11.3965H110.671V24H109.739V18.0938H101.671V24H100.739ZM117.461 17.6982C117.461 16.8428 117.613 16.0225 117.918 15.2373C118.229 14.4463 118.653 13.752 119.192 13.1543C119.737 12.5566 120.411 12.0791 121.214 11.7217C122.017 11.3643 122.881 11.1855 123.807 11.1855C124.738 11.1855 125.603 11.3643 126.399 11.7217C127.196 12.0732 127.864 12.5479 128.403 13.1455C128.942 13.7373 129.364 14.4287 129.669 15.2197C129.974 16.0049 130.126 16.8311 130.126 17.6982C130.126 18.5537 129.971 19.377 129.66 20.168C129.355 20.9531 128.931 21.6475 128.386 22.251C127.841 22.8486 127.167 23.3262 126.364 23.6836C125.562 24.041 124.697 24.2197 123.771 24.2197C122.84 24.2197 121.976 24.0439 121.179 23.6924C120.382 23.335 119.714 22.8574 119.175 22.2598C118.642 21.6621 118.223 20.9707 117.918 20.1855C117.613 19.3945 117.461 18.5654 117.461 17.6982ZM118.428 17.6982C118.428 18.7295 118.656 19.6787 119.113 20.5459C119.576 21.4072 120.221 22.0928 121.047 22.6025C121.873 23.1123 122.793 23.3672 123.807 23.3672C124.82 23.3672 125.737 23.1152 126.558 22.6113C127.384 22.1016 128.022 21.416 128.474 20.5547C128.931 19.6934 129.159 18.7412 129.159 17.6982C129.159 16.9307 129.021 16.1982 128.746 15.501C128.477 14.8037 128.104 14.2031 127.63 13.6992C127.161 13.1895 126.59 12.7852 125.916 12.4863C125.248 12.1816 124.533 12.0293 123.771 12.0293C122.758 12.0293 121.841 12.2842 121.021 12.7939C120.2 13.2979 119.562 13.9805 119.104 14.8418C118.653 15.7031 118.428 16.6553 118.428 17.6982ZM136.908 24V11.3965H137.787L142.849 18.8496L147.903 11.3965H148.79V24H147.85V13.0576L142.867 20.3086H142.796L137.804 13.0576V24H136.908ZM156.135 24V11.3965H165.099V12.2666H157.066V17.2148H164.291V18.0762H157.066V23.1387H165.187V24H156.135Z" fill="#222222"/>
<path d="M0.00524 16.5586C0.00524 14.7028 0.00524 12.8603 0.00524 11.0044C0.00524 10.8851 -0.0368289 10.7658 0.117433 10.6863C0.173528 10.6598 0.145478 10.567 0.145478 10.514C0.145478 10.4344 0.131456 10.3416 0.243647 10.3019C0.285718 10.2886 0.285716 10.2356 0.285716 10.1958C0.285716 10.1296 0.285718 10.0633 0.383885 10.0368C0.397909 10.0368 0.425955 9.997 0.425955 9.98374C0.425955 9.75839 0.650336 9.6656 0.77655 9.51979C0.874717 9.40048 1.01496 9.30769 1.12715 9.20164C1.25336 9.08234 1.37958 8.96304 1.50579 8.84374C1.61798 8.72443 1.74419 8.63164 1.84236 8.51234C1.94053 8.39304 2.06674 8.30025 2.19296 8.19421C2.30515 8.08816 2.43136 7.96886 2.54355 7.86281C2.65574 7.75677 2.76793 7.65072 2.89415 7.54467C3.00634 7.43862 3.13255 7.31932 3.24474 7.21327C3.35693 7.10723 3.46912 7.00118 3.58131 6.88188C3.6935 6.77583 3.81972 6.65653 3.93191 6.55048C4.0441 6.44444 4.15629 6.32514 4.26849 6.21909C4.3947 6.09979 4.50689 5.99374 4.6331 5.87444C4.74529 5.7684 4.85748 5.66235 4.9837 5.5563C5.09589 5.45025 5.2221 5.34421 5.33429 5.23817C5.46051 5.11886 5.5727 5.01281 5.69891 4.89351C5.8111 4.78746 5.92329 4.66816 6.03548 4.56211C6.14767 4.45607 6.25987 4.33677 6.37206 4.23072C6.49827 4.12467 6.59644 4.01863 6.72265 3.91258C6.84887 3.79328 6.97508 3.67398 7.10129 3.55468C7.21348 3.43537 7.3397 3.34258 7.43787 3.22328C7.53603 3.10398 7.66225 3.01119 7.78846 2.90514C7.90065 2.79909 8.02687 2.69305 8.13906 2.587C8.25125 2.48096 8.36344 2.36166 8.47563 2.25561C8.60185 2.13631 8.72806 2.017 8.85427 1.8977C8.98049 1.79165 9.07865 1.67235 9.20487 1.57956C9.33108 1.48677 9.42925 1.38073 9.54144 1.26142C9.65363 1.14212 9.77984 1.02282 9.90606 0.916769C10.0182 0.810722 10.1164 0.704681 10.2426 0.598634C10.3548 0.505844 10.4249 0.373281 10.5932 0.386537C10.6353 0.386537 10.6493 0.360025 10.6633 0.320258C10.6774 0.293746 10.7054 0.267239 10.7475 0.267239C10.8457 0.253983 10.9298 0.253977 10.9859 0.161186C11.0139 0.108163 11.0981 0.134681 11.1682 0.134681C11.2523 0.134681 11.3505 0.147935 11.3926 0.041889C11.4206 -0.0111342 11.4767 0.00212321 11.5188 0.00212321C11.8974 0.00212321 12.2621 0.00212321 12.6407 0.00212321C12.6828 0.00212321 12.7389 -0.0111391 12.7529 0.0286283C12.809 0.147931 12.9212 0.121425 13.0193 0.134681C13.0895 0.134681 13.1736 0.134675 13.2017 0.227465C13.2157 0.253977 13.2297 0.267239 13.2578 0.267239C13.4401 0.253983 13.5242 0.386535 13.6224 0.492581C13.6364 0.505837 13.6504 0.532355 13.6785 0.532355C13.9309 0.545611 14.015 0.757701 14.1693 0.877003C14.2955 0.969793 14.3937 1.0891 14.5059 1.19515C14.6321 1.30119 14.7443 1.42049 14.8705 1.53979C14.9827 1.64584 15.0949 1.75189 15.2071 1.85794C15.3333 1.97724 15.4595 2.09653 15.5857 2.21584C15.6839 2.32188 15.7961 2.41468 15.9083 2.52073C16.0345 2.64003 16.1607 2.77258 16.3009 2.87863C16.4131 2.98467 16.5253 3.10398 16.6515 3.19677C16.7637 3.28956 16.8759 3.40886 16.9881 3.50165C17.1143 3.62095 17.2405 3.74026 17.3667 3.85956C17.4789 3.9656 17.5911 4.07165 17.7033 4.19095C17.8155 4.31026 17.9417 4.4163 18.0539 4.52235C18.1661 4.62839 18.2783 4.73444 18.3905 4.84049C18.5167 4.95979 18.6289 5.06584 18.7551 5.18514C18.8673 5.29118 18.9795 5.39723 19.0776 5.50328C19.2039 5.62258 19.3301 5.74188 19.4563 5.86118C19.5685 5.96723 19.6807 6.07327 19.7929 6.19258C19.905 6.29862 20.0313 6.41792 20.1434 6.52397C20.2556 6.63002 20.3819 6.74932 20.494 6.85537C20.6062 6.96141 20.7184 7.06746 20.8306 7.17351C20.9568 7.27956 21.069 7.39885 21.1952 7.51816C21.3074 7.6242 21.4196 7.73025 21.5318 7.8363C21.644 7.94235 21.7702 8.06165 21.8824 8.16769C21.9946 8.27374 22.1068 8.39304 22.219 8.49909C22.3452 8.61839 22.4714 8.72444 22.5976 8.857C22.6958 8.96304 22.808 9.06909 22.9202 9.16188C23.0885 9.29444 23.2147 9.48002 23.397 9.59932C23.411 9.61257 23.425 9.62583 23.425 9.63908C23.425 9.81141 23.5512 9.89095 23.6634 9.98374C23.7055 10.0103 23.7055 10.05 23.7055 10.0898C23.7195 10.1561 23.7055 10.2223 23.8037 10.2489C23.8457 10.2621 23.8457 10.3019 23.8457 10.3284C23.8457 10.4079 23.8598 10.4875 23.9579 10.5272C24 10.5405 23.986 10.5935 23.986 10.6333C23.986 10.7658 24 10.8984 24 11.0309C24 13.9737 24 16.9298 24 19.8726C24 19.9654 24 20.0582 24 20.1509C24 20.2172 24 20.2702 23.9299 20.2968C23.8738 20.3233 23.8738 20.3763 23.8738 20.4293C23.8738 20.5221 23.8738 20.6281 23.8738 20.7209C23.8738 20.8137 23.9018 20.9198 23.7756 20.9728C23.7335 20.9861 23.7476 21.0391 23.7476 21.0788C23.7476 21.1716 23.7476 21.2512 23.7335 21.344C23.7335 21.3705 23.7335 21.4235 23.7195 21.4367C23.5512 21.5163 23.6214 21.6621 23.6073 21.7947C23.5933 21.8874 23.6214 21.9802 23.5092 22.0333C23.4531 22.0598 23.4811 22.1393 23.4671 22.2056C23.4531 22.2851 23.4811 22.3779 23.3689 22.4309C23.3128 22.4574 23.3409 22.537 23.3269 22.6033C23.3128 22.6828 23.3409 22.7888 23.2287 22.8286L23.2147 22.8419C23.2427 23.0009 23.0464 23.0937 23.0464 23.2528C23.0464 23.2926 23.0464 23.3323 22.9903 23.3456C22.9061 23.3721 22.8921 23.4516 22.9061 23.5047C22.9342 23.677 22.794 23.7565 22.7098 23.8758C22.6958 23.8891 22.6537 23.9023 22.6537 23.9156C22.6677 24.0747 22.4854 24.1542 22.4854 24.3C22.4854 24.4061 22.3592 24.406 22.3452 24.4856C22.3312 24.5519 22.3312 24.6181 22.261 24.6844C22.1769 24.7507 22.0507 24.8302 22.0507 24.976C22.0507 25.0821 21.9105 25.0954 21.8684 25.1881C21.8544 25.2147 21.8123 25.2544 21.7842 25.2809C21.7001 25.3472 21.644 25.4267 21.63 25.5328C21.63 25.6123 21.5318 25.6256 21.4897 25.6786C21.3775 25.7847 21.2654 25.904 21.1532 26.01C21.055 26.0895 20.9288 26.1558 20.9428 26.3149C20.9428 26.3281 20.9288 26.3679 20.9148 26.3679C20.7184 26.4872 20.6203 26.686 20.4239 26.8053C20.4099 26.9114 20.2697 26.9114 20.2416 27.0042C20.2416 27.0307 20.2136 27.044 20.1855 27.044C20.0032 27.044 19.9331 27.1898 19.8209 27.2958C19.6807 27.4284 19.5264 27.5477 19.4002 27.6935C19.3862 27.7067 19.3721 27.72 19.3581 27.72C19.1758 27.72 19.0917 27.8526 18.9795 27.9586C18.9654 27.9719 18.9514 27.9851 18.9374 27.9851C18.7551 27.9851 18.6569 28.1044 18.5588 28.2237C18.5447 28.237 18.5307 28.2502 18.5167 28.2502C18.3344 28.2502 18.2222 28.3695 18.124 28.4888C18.096 28.5153 18.0539 28.5154 18.0259 28.5154C17.9557 28.5286 17.8856 28.5154 17.8576 28.6081C17.8435 28.6479 17.7874 28.6479 17.7594 28.6479C17.6893 28.6612 17.6051 28.6479 17.5771 28.7407L17.5631 28.754C17.3948 28.7407 17.3106 28.8998 17.1564 28.913C17.1143 28.913 17.0582 28.913 17.0442 28.9528C17.0021 29.0588 16.9039 29.0456 16.8198 29.0456C16.7357 29.0588 16.6235 29.0323 16.5814 29.1516C16.5814 29.1649 16.5534 29.1781 16.5393 29.1781C16.4412 29.1914 16.343 29.1914 16.2729 29.2974C16.2448 29.3372 16.1467 29.3107 16.0906 29.324C16.0064 29.324 15.9363 29.3107 15.8802 29.4167C15.8522 29.483 15.768 29.4565 15.6979 29.4565C15.5997 29.4698 15.5016 29.43 15.4455 29.5493C15.4314 29.5891 15.3754 29.5758 15.3333 29.5758C15.2491 29.5758 15.165 29.5758 15.0668 29.5891C14.9967 29.5891 14.9266 29.5891 14.8985 29.6686C14.8705 29.7216 14.8144 29.7084 14.7583 29.7084C14.6181 29.7084 14.4919 29.7084 14.3516 29.7216C14.3095 29.7216 14.2394 29.7084 14.2254 29.7614C14.1833 29.8674 14.0852 29.8409 14.001 29.8542C13.7907 29.8542 13.5943 29.8542 13.384 29.8674C13.3139 29.8674 13.2437 29.8674 13.2017 29.947C13.1876 29.9867 13.1315 29.9867 13.0895 29.9867C12.795 29.9867 12.5005 29.9867 12.22 30C12.1358 30 12.0938 29.9735 12.0938 29.8807C12.0938 29.8409 12.0938 29.8012 12.0938 29.7614C12.0938 28.1442 12.0938 26.5402 12.0938 24.923C12.0938 24.6977 12.0938 24.6977 12.3322 24.6977C12.4303 24.6977 12.5285 24.6977 12.6267 24.6977C12.6968 24.6977 12.7669 24.6977 12.809 24.6181C12.837 24.5651 12.8931 24.5784 12.9352 24.5784C13.0474 24.5784 13.1736 24.5784 13.2858 24.5651C13.3699 24.5651 13.4821 24.5784 13.5242 24.4723C13.5382 24.4326 13.5943 24.4458 13.6364 24.4458C13.7205 24.4458 13.8047 24.4458 13.9028 24.4326C13.973 24.4326 14.0431 24.4326 14.0852 24.353C14.1272 24.2735 14.2114 24.3133 14.2815 24.3C14.3656 24.2868 14.4778 24.3133 14.5199 24.2072C14.5339 24.1674 14.576 24.1807 14.6181 24.1674C14.6882 24.1542 14.7723 24.1674 14.8004 24.0747C14.8144 24.0349 14.8565 24.0349 14.8845 24.0349C14.9687 24.0349 15.0528 24.0216 15.0808 23.9288C15.0808 23.9156 15.1089 23.9023 15.1229 23.9023C15.3052 23.9023 15.4034 23.783 15.5016 23.6637C15.5156 23.6505 15.5296 23.6372 15.5436 23.6372C15.7259 23.6372 15.8241 23.5179 15.9223 23.3986C15.9363 23.3854 15.9503 23.3721 15.9644 23.3721C16.2168 23.3588 16.3149 23.1468 16.4692 23.0142C16.5954 22.9081 16.7216 22.8021 16.8338 22.6828C16.918 22.59 17.0442 22.5237 17.0582 22.3779C17.0582 22.3116 17.1704 22.2454 17.2405 22.1791C17.2686 22.1526 17.2966 22.1393 17.3247 22.0995C17.3948 22.02 17.4649 21.9405 17.4789 21.8212C17.4929 21.7549 17.5911 21.6886 17.6612 21.6223C17.6753 21.6091 17.7033 21.6091 17.7033 21.5958C17.6893 21.4368 17.8716 21.3572 17.8716 21.2114C17.8716 21.1849 17.8716 21.1319 17.8996 21.1186C18.0259 21.0656 17.9978 20.9595 18.0118 20.8668C18.0118 20.8005 18.0118 20.7209 18.096 20.6812C18.1661 20.6414 18.138 20.5619 18.1521 20.4956C18.1661 20.4161 18.138 20.31 18.2502 20.2702C18.2923 20.257 18.2783 20.204 18.2923 20.1642C18.2923 20.0714 18.2923 19.9786 18.3063 19.8858C18.3063 19.8461 18.2923 19.793 18.3344 19.7798C18.4606 19.7268 18.4325 19.6207 18.4325 19.5412C18.4325 17.924 18.4466 16.32 18.4466 14.7028C18.4466 14.5968 18.4185 14.4907 18.5447 14.4244C18.5868 14.3979 18.5728 14.3449 18.5728 14.3051C18.5588 14.2123 18.6289 14.093 18.5027 14.0268C18.6149 13.9472 18.5728 13.8279 18.5728 13.7351C18.5728 13.6291 18.5728 13.523 18.5728 13.417C18.5728 13.3109 18.5728 13.1916 18.5728 13.0856C18.5728 12.9795 18.5728 12.8735 18.5728 12.7675C18.5728 12.7012 18.5728 12.6349 18.4886 12.5951C18.4606 12.5819 18.4466 12.5686 18.4466 12.5421C18.4466 12.2902 18.1941 12.2107 18.0679 12.0516C17.9698 11.9323 17.8435 11.8395 17.7314 11.7202C17.6332 11.6009 17.507 11.5082 17.3948 11.4021C17.2686 11.2961 17.1564 11.1768 17.0302 11.0575C16.918 10.9514 16.8058 10.8321 16.6936 10.7393C16.5674 10.6333 16.4692 10.5272 16.357 10.4212C16.2308 10.3019 16.0906 10.1826 15.9644 10.0633C15.8522 9.95723 15.74 9.85118 15.6278 9.73188C15.5296 9.62583 15.4174 9.51979 15.3052 9.41374C15.179 9.29444 15.0528 9.17514 14.9266 9.05583C14.8144 8.94979 14.7022 8.84374 14.604 8.75095C14.4778 8.63165 14.3516 8.51235 14.2254 8.39304C14.1132 8.287 14.015 8.18095 13.8888 8.08816C13.7626 7.98212 13.6644 7.87607 13.5382 7.77002C13.398 7.65072 13.2858 7.53142 13.1596 7.39886C13.0474 7.29281 12.9212 7.18676 12.823 7.08072C12.7248 6.96141 12.5986 6.86863 12.4864 6.76258C12.3883 6.66979 12.248 6.60351 12.248 6.43119C12.248 6.35165 12.0657 6.33839 12.0096 6.40467C11.8273 6.61677 11.6029 6.80234 11.4066 6.98792C11.1963 7.18676 10.9859 7.3856 10.7755 7.57118C10.6073 7.717 10.453 7.87607 10.2987 8.03514C10.1865 8.14118 10.0743 8.26049 9.94813 8.35328C9.82192 8.44607 9.72375 8.56537 9.61156 8.68467C9.49937 8.79072 9.37315 8.91002 9.26096 9.01607C9.14877 9.12211 9.03658 9.22816 8.92439 9.34746C8.8122 9.45351 8.70001 9.57281 8.58782 9.67886C8.46161 9.79816 8.33539 9.91746 8.20918 10.0368C8.08296 10.1428 7.98479 10.2621 7.85858 10.3549C7.73237 10.4477 7.6342 10.567 7.52201 10.673C7.40982 10.7791 7.2836 10.8984 7.17141 11.0044C7.05922 11.1105 6.93301 11.2298 6.82082 11.3358C6.70863 11.4419 6.59644 11.5612 6.48425 11.654C6.35803 11.76 6.25987 11.8793 6.13365 11.9721C6.00744 12.0782 5.90927 12.2107 5.78306 12.3035C5.71294 12.3565 5.69891 12.3963 5.69891 12.4626C5.69891 12.5289 5.69891 12.5819 5.69891 12.6482C5.69891 14.6895 5.69891 16.7309 5.69891 18.7723C5.69891 18.8121 5.69891 18.8386 5.69891 18.8651C5.69891 19.0772 5.82513 19.1965 6.04951 19.1965C7.95675 19.1965 9.86399 19.1965 11.7572 19.1965C12.0096 19.1965 12.0096 19.1965 12.0096 19.4351C12.0096 21.0523 12.0096 22.6695 12.0096 24.2867C12.0096 24.3265 12.0096 24.3663 12.0096 24.4061C12.0096 24.4723 11.9676 24.4988 11.9115 24.4988C11.8694 24.4988 11.8273 24.4988 11.7853 24.4988C8.85427 24.4988 5.93732 24.4988 3.00634 24.4988C2.90817 24.4988 2.79598 24.4988 2.69782 24.4988C2.61367 24.4988 2.5155 24.5121 2.45941 24.4061C2.44538 24.3663 2.38929 24.3795 2.34722 24.3795C2.26308 24.3795 2.16491 24.3663 2.08077 24.3795C1.96858 24.3928 1.92651 24.3 1.85639 24.2602C1.78627 24.2205 1.67408 24.2867 1.632 24.1807C1.61798 24.1542 1.60396 24.1409 1.58993 24.1409C1.33751 24.1277 1.22531 23.9156 1.07105 23.7698C1.02898 23.73 0.972885 23.73 0.930813 23.7167C0.874718 23.7035 0.818624 23.7035 0.818624 23.6372C0.832648 23.4914 0.692411 23.4384 0.622292 23.3456C0.594244 23.3058 0.538145 23.2263 0.496074 23.213C0.369859 23.16 0.397909 23.0672 0.383885 22.9744C0.383885 22.8949 0.383883 22.8286 0.285716 22.7756C0.215597 22.7491 0.243647 22.6695 0.243647 22.6033C0.229623 22.5105 0.257669 22.4177 0.145478 22.3647C0.103407 22.3514 0.117433 22.2851 0.117433 22.2454C0.117433 22.0465 0.117433 21.8609 0.117433 21.6621C0.00524257 19.9654 0.00524 18.2554 0.00524 16.5586Z" fill="#FE805C"/>
<path fill-rule="evenodd" clip-rule="evenodd" d="M12 24.4535C12.0062 24.4407 12.0097 24.425 12.0097 24.4061V24.2867V19.4351C12.0097 19.3547 12.0097 19.3014 12 19.266V24.4535ZM12 6.41586C12.0032 6.41214 12.0065 6.40841 12.0097 6.40467C12.0658 6.3384 12.2481 6.35165 12.2481 6.43119C12.2481 6.56625 12.3342 6.63617 12.4187 6.70477C12.4421 6.72369 12.4653 6.74252 12.4865 6.76258C12.5239 6.79793 12.5628 6.83181 12.6018 6.86569C12.6797 6.93344 12.7576 7.00119 12.8231 7.08072C12.8885 7.15142 12.9664 7.22212 13.0443 7.29282C13.0833 7.32817 13.1222 7.36351 13.1596 7.39886C13.1657 7.40521 13.1717 7.41152 13.1777 7.41781C13.2966 7.54284 13.4047 7.65643 13.5383 7.77002C13.6014 7.82304 13.6575 7.87607 13.7136 7.92909C13.7697 7.98212 13.8258 8.03514 13.8889 8.08816C13.9833 8.15758 14.062 8.23441 14.1426 8.31311C14.1698 8.33961 14.1972 8.36633 14.2254 8.39304L14.6041 8.75095L14.9266 9.05583L15.3053 9.41374L15.3055 9.41395C15.4176 9.51992 15.5297 9.6259 15.6278 9.73188C15.74 9.85118 15.8522 9.95722 15.9644 10.0633L15.9644 10.0633C16.0275 10.1229 16.0941 10.1826 16.1607 10.2422C16.2273 10.3019 16.2939 10.3615 16.3571 10.4212C16.3945 10.4565 16.4303 10.4919 16.4661 10.5272C16.5378 10.5979 16.6095 10.6686 16.6936 10.7393C16.7684 10.8012 16.8432 10.8748 16.918 10.9485C16.9554 10.9853 16.9928 11.0221 17.0302 11.0575C17.0728 11.0977 17.1138 11.138 17.1543 11.1778C17.2338 11.2558 17.3112 11.3319 17.3948 11.4021C17.4322 11.4375 17.4712 11.4713 17.5101 11.5052C17.588 11.573 17.666 11.6407 17.7314 11.7202C17.7796 11.7715 17.8305 11.8179 17.8806 11.8637C17.9469 11.9243 18.012 11.9836 18.068 12.0516C18.109 12.1034 18.1635 12.1467 18.2182 12.1903C18.3317 12.2807 18.4466 12.3722 18.4466 12.5421C18.4466 12.5686 18.4606 12.5819 18.4887 12.5951C18.5728 12.6349 18.5728 12.7012 18.5728 12.7675V13.0856V13.417V13.7351C18.5728 13.7545 18.5747 13.775 18.5765 13.796C18.5837 13.8759 18.5915 13.9638 18.5027 14.0268C18.5912 14.0732 18.5832 14.1458 18.5753 14.2169C18.572 14.2473 18.5686 14.2774 18.5728 14.3051C18.5728 14.3129 18.5734 14.3211 18.5739 14.3296C18.5762 14.3646 18.5786 14.4031 18.5448 14.4244C18.4382 14.4804 18.4416 14.5648 18.4453 14.6536C18.4459 14.6699 18.4466 14.6863 18.4466 14.7028C18.4466 15.5114 18.4431 16.3167 18.4396 17.122C18.4361 17.9273 18.4326 18.7326 18.4326 19.5412C18.4326 19.5531 18.4332 19.5656 18.4339 19.5784C18.4375 19.6513 18.4417 19.7347 18.3344 19.7798C18.3006 19.7904 18.303 19.8267 18.3053 19.8611C18.3058 19.8696 18.3064 19.878 18.3064 19.8858C18.2923 19.9786 18.2923 20.0714 18.2923 20.1641V20.1642C18.2877 20.1772 18.2862 20.1917 18.2846 20.2057C18.2815 20.2345 18.2785 20.2613 18.2503 20.2702C18.1641 20.3008 18.1607 20.3704 18.1574 20.4371C18.1564 20.4572 18.1554 20.4771 18.1521 20.4956C18.1479 20.5154 18.1475 20.5365 18.1471 20.5573C18.1461 20.606 18.1451 20.6533 18.096 20.6812C18.0119 20.7209 18.0119 20.8005 18.0119 20.8668C18.0089 20.8866 18.0078 20.9071 18.0067 20.9275C18.0028 21.0025 17.9989 21.0769 17.8997 21.1186C17.8716 21.1319 17.8716 21.1849 17.8716 21.2114C17.8716 21.2807 17.8304 21.3351 17.7887 21.3901C17.7427 21.4508 17.696 21.5124 17.7033 21.5958C17.7033 21.6033 17.6945 21.6065 17.6843 21.6103C17.6763 21.6133 17.6674 21.6165 17.6613 21.6223C17.6437 21.6389 17.6245 21.6555 17.6052 21.672C17.5473 21.7218 17.4895 21.7715 17.479 21.8212C17.4649 21.9405 17.3948 22.02 17.3247 22.0995C17.306 22.1261 17.2873 22.1408 17.2686 22.1555C17.2593 22.1629 17.2499 22.1702 17.2406 22.1791C17.2214 22.1972 17.1992 22.2152 17.1769 22.2333C17.1176 22.2815 17.0582 22.3297 17.0582 22.3779C17.0479 22.4854 16.9766 22.5497 16.9061 22.6132C16.881 22.6358 16.856 22.6584 16.8339 22.6828C16.7217 22.8021 16.5955 22.9081 16.4692 23.0142C16.4265 23.0509 16.3881 23.0937 16.3495 23.1367C16.2488 23.249 16.1469 23.3625 15.9644 23.3721C15.9504 23.3721 15.9363 23.3854 15.9223 23.3986C15.8242 23.5179 15.726 23.6372 15.5437 23.6372C15.5297 23.6372 15.5156 23.6505 15.5016 23.6637C15.4034 23.783 15.3053 23.9023 15.123 23.9023C15.1089 23.9023 15.0809 23.9156 15.0809 23.9288C15.0528 24.0216 14.9687 24.0349 14.8846 24.0349C14.8565 24.0349 14.8144 24.0349 14.8004 24.0747C14.778 24.1489 14.7196 24.1553 14.6613 24.1616C14.6467 24.1632 14.6321 24.1648 14.6181 24.1674C14.6046 24.1717 14.5911 24.1732 14.5786 24.1746C14.5519 24.1777 14.5295 24.1802 14.5199 24.2072C14.4876 24.2886 14.414 24.2919 14.3434 24.295C14.3221 24.296 14.3011 24.2969 14.2815 24.3C14.2599 24.3041 14.2369 24.3031 14.2143 24.3022C14.1635 24.3001 14.1143 24.298 14.0852 24.353C14.0431 24.4326 13.973 24.4326 13.9029 24.4326C13.8047 24.4458 13.7206 24.4458 13.6365 24.4458H13.6364C13.6281 24.4458 13.6193 24.4453 13.6103 24.4448C13.5739 24.4426 13.5355 24.4404 13.5242 24.4723C13.4863 24.568 13.3913 24.5666 13.3113 24.5654C13.3026 24.5653 13.2941 24.5651 13.2858 24.5651C13.1737 24.5784 13.0475 24.5784 12.9353 24.5784H12.9352C12.9284 24.5784 12.9212 24.578 12.9138 24.5777C12.8757 24.5758 12.8325 24.5737 12.809 24.6181C12.767 24.6977 12.6968 24.6977 12.6267 24.6977H12.3322C12.0938 24.6977 12.0938 24.6977 12.0938 24.923V29.7614V29.8807C12.0938 29.9735 12.1359 30 12.22 30C12.5005 29.9867 12.795 29.9867 13.0895 29.9867C13.1316 29.9867 13.1877 29.9867 13.2017 29.947C13.2438 29.8674 13.3139 29.8674 13.384 29.8674C13.5944 29.8542 13.7907 29.8542 14.0011 29.8542C14.0204 29.8511 14.0405 29.8502 14.0605 29.8492C14.1274 29.8461 14.1931 29.843 14.2254 29.7614C14.2372 29.7168 14.2888 29.7191 14.3299 29.7209C14.3376 29.7213 14.345 29.7216 14.3517 29.7216C14.4918 29.7084 14.618 29.7084 14.7582 29.7084H14.7583C14.7678 29.7084 14.7773 29.7088 14.7867 29.7091C14.8326 29.711 14.8753 29.7127 14.8986 29.6686C14.9266 29.5891 14.9967 29.5891 15.0669 29.5891C15.165 29.5758 15.2491 29.5758 15.3332 29.5758H15.3333C15.3416 29.5758 15.3505 29.5763 15.3594 29.5769C15.3959 29.579 15.4343 29.5812 15.4455 29.5493C15.4876 29.4598 15.5533 29.4598 15.625 29.4598C15.6489 29.4598 15.6734 29.4598 15.6979 29.4565C15.7136 29.4565 15.73 29.4578 15.7462 29.4591C15.8028 29.4637 15.8585 29.4682 15.8802 29.4167C15.9306 29.3215 15.9923 29.3225 16.0654 29.3237C16.0736 29.3238 16.082 29.324 16.0906 29.324C16.1116 29.319 16.1386 29.3196 16.1655 29.3202C16.2105 29.3213 16.2554 29.3223 16.2729 29.2974C16.3355 29.2029 16.4203 29.1926 16.5076 29.1821C16.5182 29.1809 16.5288 29.1796 16.5394 29.1781C16.5534 29.1781 16.5814 29.1649 16.5814 29.1516C16.6144 29.0581 16.6905 29.0542 16.7623 29.0505C16.7822 29.0495 16.8017 29.0484 16.8198 29.0456C16.8282 29.0456 16.8367 29.0457 16.8452 29.0458C16.9229 29.047 17.0063 29.0483 17.0442 28.9528C17.0582 28.913 17.1143 28.913 17.1564 28.913C17.227 28.907 17.2829 28.8704 17.3389 28.8338C17.4053 28.7903 17.4718 28.7468 17.5631 28.754L17.5771 28.7407C17.5996 28.6665 17.6579 28.6601 17.7162 28.6537C17.7308 28.6522 17.7454 28.6506 17.7594 28.6479C17.7875 28.6479 17.8436 28.6479 17.8576 28.6081C17.8802 28.5333 17.9303 28.5274 17.9856 28.521C17.9988 28.5195 18.0124 28.5179 18.0259 28.5154C18.0539 28.5154 18.096 28.5153 18.1241 28.4888C18.2222 28.3695 18.3344 28.2502 18.5167 28.2502C18.5307 28.2502 18.5448 28.237 18.5588 28.2237C18.657 28.1044 18.7551 27.9851 18.9374 27.9851C18.9515 27.9851 18.9655 27.9719 18.9795 27.9586C19.001 27.9383 19.0215 27.917 19.0419 27.8958C19.1276 27.8066 19.2108 27.72 19.3582 27.72C19.3722 27.72 19.3862 27.7067 19.4002 27.6935C19.4844 27.5963 19.581 27.5109 19.6776 27.4254C19.7259 27.3827 19.7742 27.34 19.8209 27.2958C19.8482 27.2701 19.8729 27.242 19.8974 27.2142C19.9738 27.1276 20.0475 27.044 20.1856 27.044C20.2136 27.044 20.2417 27.0307 20.2417 27.0042C20.2548 26.9607 20.2925 26.9376 20.3304 26.9144C20.3734 26.8881 20.4165 26.8617 20.424 26.8053C20.5221 26.7457 20.5958 26.6662 20.6694 26.5866C20.743 26.5071 20.8166 26.4276 20.9148 26.3679C20.9288 26.3679 20.9428 26.3281 20.9428 26.3149C20.9309 26.1793 21.0208 26.1111 21.1084 26.0447C21.1236 26.0332 21.1387 26.0217 21.1532 26.01C21.2093 25.957 21.2654 25.9006 21.3215 25.8443C21.3776 25.788 21.4337 25.7316 21.4898 25.6786C21.5053 25.659 21.5285 25.6448 21.5516 25.6307C21.591 25.6067 21.63 25.5829 21.63 25.5328C21.644 25.4267 21.7001 25.3472 21.7843 25.2809L21.7843 25.2809C21.8124 25.2544 21.8544 25.2146 21.8684 25.1881C21.8868 25.1476 21.924 25.1222 21.96 25.0976C22.0063 25.066 22.0507 25.0357 22.0507 24.976C22.0507 24.8454 22.152 24.768 22.2336 24.7056C22.2431 24.6984 22.2523 24.6913 22.2611 24.6844C22.3195 24.6292 22.3293 24.574 22.339 24.5187C22.3409 24.5077 22.3429 24.4966 22.3452 24.4856C22.3515 24.4499 22.3803 24.4303 22.4102 24.4099C22.447 24.3847 22.4855 24.3585 22.4855 24.3C22.4855 24.2307 22.5267 24.1763 22.5684 24.1213C22.6144 24.0606 22.6611 23.999 22.6538 23.9156C22.6538 23.9076 22.6689 23.8997 22.684 23.8917C22.6941 23.8864 22.7042 23.8811 22.7099 23.8758C22.7324 23.8439 22.7589 23.8148 22.7851 23.7861C22.857 23.7073 22.9267 23.6309 22.9062 23.5047C22.8922 23.4516 22.9062 23.3721 22.9903 23.3456C23.0464 23.3323 23.0464 23.2926 23.0464 23.2528C23.0464 23.1776 23.0903 23.1172 23.1336 23.0576C23.1819 22.9911 23.2295 22.9257 23.2147 22.8419L23.2287 22.8286C23.3149 22.7981 23.3183 22.7285 23.3217 22.6618C23.3227 22.6416 23.3236 22.6217 23.3269 22.6033C23.3316 22.5812 23.3316 22.5576 23.3316 22.535C23.3316 22.4899 23.3316 22.4486 23.369 22.4309C23.4552 22.3902 23.4586 22.3259 23.4619 22.2622C23.4629 22.2431 23.4639 22.224 23.4671 22.2056C23.4718 22.1835 23.4718 22.1599 23.4718 22.1373C23.4718 22.0922 23.4718 22.0509 23.5092 22.0333C23.5958 21.9923 23.5988 21.9278 23.6022 21.8578C23.6032 21.837 23.6042 21.8158 23.6074 21.7947C23.6111 21.7599 23.6089 21.7242 23.6069 21.6891C23.601 21.5902 23.5954 21.4954 23.7196 21.4367C23.7336 21.4235 23.7336 21.3705 23.7336 21.344C23.7476 21.2512 23.7476 21.1716 23.7476 21.0788C23.7476 21.071 23.7471 21.0626 23.7465 21.0542C23.7443 21.0197 23.7419 20.9834 23.7757 20.9728C23.8826 20.9279 23.8788 20.845 23.8751 20.7642C23.8745 20.7497 23.8738 20.7351 23.8738 20.7209V20.4293C23.8738 20.3763 23.8738 20.3233 23.9299 20.2968C24 20.2702 24 20.2172 24 20.1509V19.8726V11.0309C24 10.9647 23.9965 10.8984 23.993 10.8321C23.9895 10.7658 23.986 10.6995 23.986 10.6333C23.986 10.6254 23.9866 10.6171 23.9871 10.6086C23.9894 10.5741 23.9917 10.5379 23.958 10.5272C23.8598 10.4875 23.8458 10.4079 23.8458 10.3284C23.8458 10.3019 23.8458 10.2621 23.8037 10.2489C23.7245 10.2275 23.7183 10.1802 23.7115 10.1279C23.7099 10.1154 23.7082 10.1026 23.7055 10.0898C23.7055 10.05 23.7055 10.0103 23.6635 9.98374C23.6509 9.97334 23.6381 9.9631 23.6254 9.95288C23.5246 9.87195 23.4251 9.79209 23.4251 9.63908C23.4251 9.62583 23.411 9.61257 23.397 9.59932C23.2944 9.53217 23.2096 9.44402 23.125 9.35614C23.0593 9.2879 22.9938 9.21982 22.9202 9.16188C22.808 9.06909 22.6958 8.96304 22.5977 8.857C22.5135 8.76862 22.4294 8.69203 22.3452 8.61544C22.3032 8.57715 22.2611 8.53885 22.219 8.49909C22.1629 8.44606 22.1068 8.38972 22.0507 8.33338C21.9946 8.27705 21.9385 8.22071 21.8824 8.16769L21.5318 7.8363L21.1953 7.51816C21.1527 7.47789 21.1117 7.43762 21.0712 7.39786C20.9917 7.31983 20.9143 7.24376 20.8307 7.17351L20.4941 6.85537L20.1435 6.52397L19.7929 6.19258C19.6807 6.07327 19.5685 5.96723 19.4563 5.86118L19.0777 5.50328C18.9795 5.39723 18.8673 5.29118 18.7551 5.18514L18.3905 4.84049L18.0539 4.52235C18.017 4.48748 17.9786 4.45261 17.9397 4.41726C17.8603 4.34513 17.7786 4.27103 17.7033 4.19095C17.5912 4.07165 17.479 3.9656 17.3668 3.85956L16.9881 3.50165C16.932 3.45525 16.8759 3.40223 16.8198 3.34921C16.7637 3.29619 16.7077 3.24316 16.6516 3.19677C16.5567 3.127 16.4697 3.04224 16.3847 2.9594C16.3566 2.93206 16.3288 2.90494 16.301 2.87863C16.1955 2.79891 16.098 2.70421 16.0025 2.61142C15.971 2.58078 15.9396 2.55034 15.9083 2.52073C15.8704 2.48488 15.8324 2.45054 15.7951 2.41669C15.7219 2.35042 15.6507 2.28603 15.5857 2.21584L15.2071 1.85794L14.8705 1.53979C14.8279 1.49952 14.7869 1.45925 14.7464 1.41949C14.667 1.34146 14.5895 1.2654 14.5059 1.19515C14.4685 1.1598 14.4327 1.12297 14.3968 1.08615C14.3252 1.01251 14.2535 0.938863 14.1693 0.877003C14.122 0.840411 14.0813 0.79509 14.0403 0.749455C13.9476 0.646304 13.8535 0.541545 13.6785 0.532355C13.6571 0.532355 13.6438 0.516882 13.6325 0.503666C13.629 0.499581 13.6257 0.495711 13.6224 0.492581C13.6085 0.477573 13.5949 0.462033 13.5813 0.446451C13.4985 0.351935 13.4143 0.25586 13.2578 0.267239C13.2297 0.267239 13.2157 0.253977 13.2017 0.227465C13.1737 0.134681 13.0895 0.134681 13.0194 0.134681H13.0194C12.9984 0.131844 12.9767 0.130828 12.9551 0.129815C12.8758 0.126092 12.797 0.122398 12.7529 0.0286283C12.7417 -0.00328656 12.7033 -0.00104668 12.6669 0.00108228C12.6579 0.0016061 12.6491 0.00212321 12.6407 0.00212321H12V6.41586Z" fill="#FE805C"/>
</svg>
