<svg width="16" height="16" viewBox="0 0 16 16" fill="" xmlns="http://www.w3.org/2000/svg">

    <path
      d="M7.99978 4.00005C9.10433 4.00005 9.99975 3.10464 9.99975 2.00009C9.99975 0.895537 9.10433 0.00012207 7.99978 0.00012207C6.89523 0.00012207 5.99982 0.895537 5.99982 2.00009C5.99982 3.10464 6.89523 4.00005 7.99978 4.00005Z"
      fill=""/>
    <path
      d="M10.9958 9.43604L10.5418 5.90011C10.4908 5.38711 10.0628 5.00012 9.54781 5.00012H8.99982C8.86682 5.00012 8.73983 5.05312 8.64583 5.14612L7.99984 5.79211L7.35385 5.14612C7.25985 5.05312 7.13286 5.00012 6.99986 5.00012H6.45287C5.93688 5.00012 5.50888 5.38712 5.45888 5.88711L5.00389 9.43704C4.98589 9.57904 5.02989 9.72304 5.12489 9.83004C5.21989 9.93804 5.35589 10 5.49988 10H6.03987L6.45787 15.0999C6.50787 15.6119 6.93686 15.9999 7.45285 15.9999H8.54783C9.06382 15.9999 9.49181 15.6119 9.54381 15.0909L9.96081 10H10.4998C10.6438 10 10.7798 9.93804 10.8748 9.83004C10.9708 9.72304 11.0148 9.57904 10.9958 9.43604Z"
      fill=""/>
    <path
      d="M12.9997 4.00005C14.1043 4.00005 14.9997 3.10464 14.9997 2.00009C14.9997 0.895537 14.1043 0.00012207 12.9997 0.00012207C11.8952 0.00012207 10.9998 0.895537 10.9998 2.00009C10.9998 3.10464 11.8952 4.00005 12.9997 4.00005Z"
      fill=""/>
    <path
      d="M2.9999 0.00012207C1.89692 0.00012207 0.999939 0.897106 0.999939 2.00009C0.999939 3.10307 1.89692 4.00005 2.9999 4.00005C4.10188 4.00005 4.99986 3.10307 4.99986 2.00009C4.99986 0.897106 4.10188 0.00012207 2.9999 0.00012207Z"
      fill=""/>
    <path
      d="M15.9957 9.43604L15.5417 5.90111C15.4907 5.38712 15.0637 5.00012 14.5477 5.00012H13.9997C13.8667 5.00012 13.7397 5.05312 13.6457 5.14612L12.9997 5.79211L12.3537 5.14612C12.2597 5.05312 12.1328 5.00012 12.0008 5.00012H11.4528C11.3908 5.00012 11.3348 5.02212 11.2758 5.03312C11.4048 5.26112 11.5058 5.50811 11.5358 5.78511L11.9888 9.30905C12.0448 9.73804 11.9108 10.17 11.6228 10.495C11.4868 10.651 11.3128 10.761 11.1268 10.847L11.4588 14.1C11.5098 14.613 11.9378 14.9999 12.4537 14.9999H13.5487C14.0647 14.9999 14.4927 14.612 14.5447 14.091L14.9607 10H15.4997C15.6437 10 15.7797 9.93804 15.8747 9.83004C15.9707 9.72304 16.0147 9.57904 15.9957 9.43604Z"
      fill=""/>
    <path
      d="M4.37385 10.49C4.08985 10.169 3.95785 9.73804 4.01185 9.31105L4.46685 5.76011C4.49285 5.49411 4.59084 5.25412 4.71584 5.03212C4.65984 5.02212 4.60684 5.00012 4.54784 5.00012H3.99985C3.86686 5.00012 3.73986 5.05312 3.64586 5.14612L2.99987 5.79211L2.35388 5.14612C2.25988 5.05312 2.13289 5.00012 2.00089 5.00012H1.45287C0.936876 5.00012 0.508884 5.38712 0.458885 5.88711L0.00389256 9.43704C-0.0141071 9.57904 0.0298921 9.72304 0.12489 9.83004C0.219889 9.93804 0.356886 10 0.499884 10H1.03987L1.45787 14.1C1.50787 14.612 1.93686 14.9999 2.45285 14.9999H3.54783C4.06382 14.9999 4.49181 14.612 4.54381 14.091L4.87581 10.846C4.68884 10.759 4.51384 10.648 4.37385 10.49Z"
      fill=""/>

</svg>
