<svg width="44" height="44" viewBox="0 0 44 44" fill="none" xmlns="http://www.w3.org/2000/svg">
<path fill-rule="evenodd" clip-rule="evenodd" d="M22 0C9.84974 0 0 9.84974 0 22C0 34.1503 9.84974 44 22 44C34.1503 44 44 34.1503 44 22C44 9.84974 34.1503 0 22 0Z" fill="#F7931E"/>
<path d="M22.5 11C19.4624 11 17 13.4624 17 16.4999C17 19.5374 19.4624 22 22.5 22C25.5376 22 28 19.5374 28 16.4999C28 13.4624 25.5376 11 22.5 11ZM22.5 18.7736C21.2444 18.7736 20.2264 17.7556 20.2264 16.5C20.2264 15.2443 21.2444 14.2264 22.5 14.2264C23.7556 14.2264 24.7736 15.2443 24.7736 16.5C24.7736 17.7556 23.7556 18.7736 22.5 18.7736Z" fill="white"/>
<path d="M24.401 26.5472C26.6273 26.0937 27.9614 25.0394 28.032 24.9828C28.6834 24.4604 28.7881 23.5087 28.2656 22.8572C27.7433 22.2057 26.7917 22.1011 26.1401 22.6235C26.1263 22.6346 24.7034 23.7261 22.3622 23.7277C20.021 23.7261 18.568 22.6346 18.5542 22.6235C17.9026 22.1011 16.9511 22.2057 16.4287 22.8572C15.9062 23.5087 16.0109 24.4604 16.6623 24.9828C16.7339 25.0402 18.1231 26.122 20.4118 26.5648L17.222 29.8984C16.6424 30.4995 16.6598 31.4567 17.261 32.0364C17.5544 32.3193 17.9326 32.4599 18.3104 32.4599C18.7066 32.4599 19.1023 32.3052 19.399 31.9974L22.3622 28.8408L25.6248 32.0179C26.2159 32.608 27.1731 32.6071 27.7632 32.0162C28.3532 31.4252 28.3525 30.4678 27.7615 29.8778L24.401 26.5472Z" fill="white"/>
<path d="M22.3621 23.7278C22.3577 23.7278 22.3665 23.7279 22.3621 23.728C22.3578 23.7279 22.3666 23.7278 22.3621 23.7278Z" fill="white"/>
</svg>
