<svg width="18" height="22" viewBox="0 0 18 22" fill="none" xmlns="http://www.w3.org/2000/svg">
<path d="M15.5254 0H2.47461C1.10973 0 0 1.13025 0 2.52038V19.4783C0 20.8684 1.10973 21.9986 2.47461 21.9986H15.5254C16.8903 21.9986 18 20.8684 18 19.4783V2.52038C18.0013 1.13025 16.8903 0 15.5254 0ZM4.50101 16.5H4.05145V17.6454C4.05145 18.0249 3.74904 18.3329 3.37643 18.3329C3.00382 18.3329 2.70142 18.0249 2.70142 17.6454V13.5204C2.70142 13.1409 3.00382 12.8329 3.37643 12.8329H4.50101C5.49329 12.8329 6.30061 13.6551 6.30061 14.6658C6.30061 15.6764 5.49329 16.5 4.50101 16.5V16.5ZM10.8003 16.7296C10.8003 17.6138 10.0942 18.3343 9.22478 18.3343H7.87475C7.50214 18.3343 7.19973 18.0263 7.19973 17.6468V13.5218C7.19973 13.1423 7.50214 12.8343 7.87475 12.8343H9.22478C10.0929 12.8343 10.8003 13.5534 10.8003 14.4389V16.7296ZM14.6263 15.125C14.9989 15.125 15.3013 15.433 15.3013 15.8125C15.3013 16.192 14.9989 16.5 14.6263 16.5H13.0508V17.6454C13.0508 18.0249 12.7484 18.3329 12.3758 18.3329C12.0031 18.3329 11.7007 18.0249 11.7007 17.6454V14.4375C11.7007 13.5534 12.4068 12.8329 13.2762 12.8329H14.6263C14.9989 12.8329 15.3013 13.1409 15.3013 13.5204C15.3013 13.8999 14.9989 14.2079 14.6263 14.2079H13.2762C13.152 14.2079 13.0508 14.311 13.0508 14.4375V15.125H14.6263Z" fill="#FC573B"/>
</svg>
