<svg width="16" height="16" viewBox="0 0 16 16" fill="" xmlns="http://www.w3.org/2000/svg">
  <path fill-rule="evenodd" clip-rule="evenodd"
        d="M12.0184 6.67867L9.32341 3.98367L11.2714 2.03467L13.9654 4.72867L12.0184 6.67867ZM5.07941 13.6247L2.10241 13.8957L2.36641 10.9397L7.98341 5.32267L10.6794 8.01867L5.07941 13.6247ZM15.4034 3.33767L15.4024 3.33667L12.6644 0.598675C11.9234 -0.140325 10.6504 -0.175325 9.94841 0.529675L0.952408 9.52567C0.626408 9.85067 0.424408 10.2827 0.382408 10.7397L0.00340774 14.9097C-0.0225923 15.2047 0.0824078 15.4967 0.292408 15.7067C0.481408 15.8957 0.736408 15.9997 0.999408 15.9997C1.03041 15.9997 1.06041 15.9987 1.09041 15.9957L5.26041 15.6167C5.71841 15.5747 6.14941 15.3737 6.47441 15.0487L15.4714 6.05167C16.1994 5.32167 16.1684 4.10367 15.4034 3.33767Z"
        fill=""/>
</svg>
