<svg width="16" height="16" viewBox="0 0 16 16" fill="" xmlns="http://www.w3.org/2000/svg">

    <path
      d="M8.1667 1.33333H7.43336C7.21336 0.566667 6.5067 0 5.66669 0C4.82669 0 4.12002 0.566667 3.90002 1.33333H3.16669C2.89335 1.33333 2.66669 1.56 2.66669 1.83333V2.83333C2.66669 3.47333 3.19335 4 3.83336 4H7.50003C8.14003 4 8.6667 3.47333 8.6667 2.83333V1.83333C8.6667 1.56 8.44003 1.33333 8.1667 1.33333Z"
      fill=""/>
    <path
      d="M9.5 2H9.33333V2.83333C9.33333 3.84667 8.51333 4.66667 7.5 4.66667H3.83333C2.82 4.66667 2 3.84667 2 2.83333V2H1.83333C0.82 2 0 2.82 0 3.83333V12.1667C0 13.18 0.82 14 1.83333 14H6.75333L6.9 13.18C6.96667 12.8067 7.14 12.4733 7.40667 12.2L7.94 11.6667H2.5C2.22667 11.6667 2 11.44 2 11.1667C2 10.8933 2.22667 10.6667 2.5 10.6667H8.83333C8.86667 10.6667 8.89333 10.6667 8.92667 10.68H8.93333L11.3333 8.28V3.83333C11.3333 2.82 10.5133 2 9.5 2ZM8.83333 9.5H2.5C2.22667 9.5 2 9.27333 2 9C2 8.72667 2.22667 8.5 2.5 8.5H8.83333C9.10667 8.5 9.33333 8.72667 9.33333 9C9.33333 9.27333 9.10667 9.5 8.83333 9.5ZM8.83333 7.33333H2.5C2.22667 7.33333 2 7.10667 2 6.83333C2 6.56 2.22667 6.33333 2.5 6.33333H8.83333C9.10667 6.33333 9.33333 6.56 9.33333 6.83333C9.33333 7.10667 9.10667 7.33333 8.83333 7.33333Z"
      fill=""/>
    <path
      d="M8.3513 16.0001C8.21997 16.0001 8.09197 15.9481 7.99797 15.8534C7.88264 15.7381 7.83064 15.5741 7.8593 15.4128L8.21264 13.4094C8.22997 13.3088 8.2793 13.2154 8.3513 13.1428L13.3013 8.19342C13.9093 7.58409 14.5066 7.74875 14.8333 8.07542L15.658 8.90009C16.1133 9.35475 16.1133 10.0948 15.658 10.5501L10.708 15.5001C10.636 15.5728 10.5426 15.6214 10.4413 15.6388L8.43797 15.9921C8.4093 15.9974 8.37997 16.0001 8.3513 16.0001ZM10.3546 15.1468H10.3613H10.3546Z"
      fill=""/>

</svg>
