<svg width="19" height="22" viewBox="0 0 19 22" fill="none" xmlns="http://www.w3.org/2000/svg">
<path d="M15.8125 0H2.52038C1.13025 0 0 1.13025 0 2.52038V19.4783C0 20.8684 1.13025 21.9986 2.52038 21.9986H15.8125C17.2026 21.9986 18.3329 20.8684 18.3329 19.4783V2.52038C18.3343 1.13025 17.2026 0 15.8125 0ZM4.58425 16.5H4.12638V17.6454C4.12638 18.0249 3.81838 18.3329 3.43888 18.3329C3.05938 18.3329 2.75138 18.0249 2.75138 17.6454V13.5204C2.75138 13.1409 3.05938 12.8329 3.43888 12.8329H4.58425C5.59488 12.8329 6.41713 13.6551 6.41713 14.6658C6.41713 15.6764 5.59488 16.5 4.58425 16.5V16.5ZM9.16713 16.5H8.70926V17.6454C8.70926 18.0249 8.40126 18.3329 8.02176 18.3329C7.64225 18.3329 7.33425 18.0249 7.33425 17.6454V13.5204C7.33425 13.1409 7.64225 12.8329 8.02176 12.8329H9.16713C10.1778 12.8329 11 13.6551 11 14.6658C11 15.6764 10.1778 16.5 9.16713 16.5V16.5ZM14.8968 14.2079H14.4389V17.6454C14.4389 18.0249 14.1309 18.3329 13.7514 18.3329C13.3719 18.3329 13.0639 18.0249 13.0639 17.6454V14.2079H12.6046C12.2251 14.2079 11.9171 13.8999 11.9171 13.5204C11.9171 13.1409 12.2251 12.8329 12.6046 12.8329H14.8968C15.2763 12.8329 15.5843 13.1409 15.5843 13.5204C15.5843 13.8999 15.2763 14.2079 14.8968 14.2079V14.2079Z" fill="#FF8135"/>
</svg>
