<svg width="19" height="22" viewBox="0 0 19 22" fill="none" xmlns="http://www.w3.org/2000/svg">
<path d="M15.8125 0H2.52038C1.13025 0 0 1.13025 0 2.52038V19.4783C0 20.8684 1.13025 21.9986 2.52038 21.9986H15.8125C17.2026 21.9986 18.3329 20.8684 18.3329 19.4783V2.52038C18.3343 1.13025 17.2026 0 15.8125 0ZM6.41713 14.8954C6.41713 15.5018 6.07475 16.0243 5.577 16.2965L6.27825 17.2329C6.5065 17.5368 6.44463 17.9685 6.14075 18.1954C6.017 18.2875 5.87263 18.3329 5.72963 18.3329C5.52063 18.3329 5.313 18.238 5.17963 18.0579L4.125 16.6526V17.6454C4.125 18.0249 3.817 18.3329 3.4375 18.3329C3.058 18.3329 2.75 18.0249 2.75 17.6454V13.5204C2.75 13.1409 3.058 12.8329 3.4375 12.8329H4.8125C5.69663 12.8329 6.41713 13.552 6.41713 14.4375V14.8954ZM11 17.6454C11 18.0249 10.692 18.3329 10.3125 18.3329C9.93301 18.3329 9.62501 18.0249 9.62501 17.6454V16.5H8.70788V17.6454C8.70788 18.0249 8.39988 18.3329 8.02038 18.3329C7.64088 18.3329 7.33288 18.0249 7.33288 17.6454V14.6658C7.33288 13.6551 8.15513 12.8329 9.16576 12.8329C10.1764 12.8329 10.9986 13.6551 10.9986 14.6658V17.6454H11ZM15.5843 14.8954C15.5843 15.5018 15.2419 16.0243 14.7441 16.2965L15.4454 17.2329C15.6736 17.5368 15.6118 17.9685 15.3079 18.1954C15.1841 18.2875 15.0398 18.3329 14.8968 18.3329C14.6878 18.3329 14.4801 18.238 14.3468 18.0579L13.2921 16.6526V17.6454C13.2921 18.0249 12.9841 18.3329 12.6046 18.3329C12.2251 18.3329 11.9171 18.0249 11.9171 17.6454V13.5204C11.9171 13.1409 12.2251 12.8329 12.6046 12.8329H13.9796C14.8638 12.8329 15.5843 13.552 15.5843 14.4375V14.8954Z" fill="#9556D0"/>
</svg>
