<svg width="16" height="16" viewBox="0 0 16 16" fill="" xmlns="http://www.w3.org/2000/svg">
  <path
    d="M13.1419 11.3448L12.6834 10.4174C11.8906 11.9473 10.3732 13.042 8.58628 13.2408L9.02507 12.1916C9.0402 12.1548 9.03139 12.1123 9.0023 12.0851C8.97276 12.0577 8.92971 12.0512 8.89399 12.069C7.92983 12.5457 5.72532 13.6355 5.1285 13.9306C5.09064 13.9492 5.06689 13.9878 5.06689 14.0298C5.06689 14.0718 5.09064 14.1104 5.1285 14.1291C8.137 15.616 7.34383 15.2238 8.89399 15.9901C8.92971 16.0079 8.97276 16.0015 9.0023 15.9742C9.03139 15.9468 9.0402 15.9043 9.02462 15.8675L8.5936 14.8368C10.7156 14.6539 12.5662 13.506 13.6962 11.8305C13.4574 11.7439 13.2528 11.5743 13.1419 11.3448Z"
    fill=""/>
  <path
    d="M2.85823 4.65532L3.31713 5.58274C4.10985 4.05328 5.62743 2.95856 7.41378 2.75991L6.97544 3.80851C6.96044 3.8453 6.96932 3.88777 6.99841 3.91523C7.02775 3.94244 7.07083 3.94892 7.10652 3.93104C10.2617 2.3708 7.65369 3.66084 10.8722 2.06948C10.9099 2.05082 10.9338 2.01225 10.9338 1.97056C10.9338 1.9703 10.9338 1.9703 10.9338 1.9703C10.9338 1.92829 10.9099 1.88971 10.8722 1.87106C7.89046 0.397109 8.67337 0.784366 7.10652 0.00981974C7.07083 -0.00776812 7.02775 -0.00132248 6.99841 0.0258853C6.96932 0.0533521 6.96044 0.0958156 6.97544 0.132611L7.40662 1.16359C5.28503 1.34679 3.43474 2.49457 2.30426 4.16988C2.54262 4.25637 2.74726 4.4258 2.85823 4.65532Z"
    fill=""/>
  <path
    d="M2.75038 8.49889L3.80895 8.94134C3.84568 8.95688 3.88866 8.94759 3.91561 8.91854C3.94301 8.88955 3.94933 8.8465 3.93174 8.81077C2.73697 6.39437 3.23901 7.41009 2.0697 5.04499V5.04444C2.05091 5.00687 2.01269 4.98303 1.97065 4.98303C1.92873 4.98303 1.89038 5.00687 1.87179 5.04444C0.308643 8.20721 0.765085 7.28367 0.0102321 8.81077C-0.00738819 8.8465 -0.00123406 8.88955 0.026168 8.91854C0.0531166 8.94756 0.0961308 8.95688 0.133023 8.94134L1.15934 8.5121C1.32145 10.6948 2.50382 12.5957 4.23475 13.7358C4.31544 13.4799 4.49523 13.2604 4.73836 13.1421L5.62474 12.7035C4.04815 11.9041 2.92402 10.3394 2.75038 8.49889Z"
    fill=""/>
  <path
    d="M4.71448 8.00035C4.71448 9.81445 6.18593 11.2856 8.0002 11.2856C9.81463 11.2856 11.2856 9.81445 11.2856 8.00035C11.2856 6.18569 9.81463 4.7146 8.0002 4.7146C6.18593 4.71479 4.71448 6.18569 4.71448 8.00035Z"
    fill=""/>
  <path
    d="M15.9738 7.08156C15.9468 7.05257 15.9043 7.04347 15.8671 7.05876L14.8406 7.48799C14.6784 5.30554 13.4963 3.4046 11.7654 2.26453C11.6849 2.52021 11.5052 2.73963 11.2623 2.85801L10.3752 3.29661C11.9518 4.096 13.0761 5.66041 13.2496 7.50095L12.1917 7.05876C12.1543 7.04321 12.112 7.05225 12.085 7.08156C12.0574 7.11058 12.0513 7.1536 12.0689 7.18932C13.6149 10.3171 12.1467 7.34505 13.9309 10.9551C13.9402 10.9738 13.9542 10.9893 13.9713 10.9999C13.9889 11.0108 14.0087 11.0168 14.0298 11.0168C14.0718 11.0168 14.1102 10.9927 14.1288 10.9551C15.6282 7.92063 15.2173 8.75215 15.9899 7.18932C16.0075 7.15356 16.0012 7.11058 15.9738 7.08156Z"
    fill=""/>
</svg>
