<svg width="16" height="16" viewBox="0 0 16 16" fill="" xmlns="http://www.w3.org/2000/svg">

    <path
      d="M15.8444 0.0653847C15.729 -0.0152401 15.578 -0.0216151 15.4562 0.0479984L0.183567 8.77525C0.058931 8.84626 -0.0121142 8.98406 0.00210166 9.12683C0.0163175 9.2696 0.112897 9.39069 0.248919 9.4358L4.80972 10.9559L6.56778 15.7614C6.62069 15.906 6.75811 16.0001 6.90903 16.0001C6.92287 16.0001 6.93709 15.9993 6.95093 15.9976C7.04918 15.9863 7.13185 15.9334 7.19028 15.8601L9.78101 12.6132L13.3398 13.7994C13.3774 13.8122 13.4161 13.8182 13.4548 13.8182C13.5202 13.8182 13.5852 13.8005 13.6423 13.766C13.7336 13.7114 13.7961 13.6194 13.8135 13.5143L15.9953 0.423407C16.0184 0.284827 15.9598 0.145635 15.8444 0.0653847ZM7.12851 11.2266C7.09121 11.2774 7.06742 11.3367 7.05999 11.3992L6.73152 14.0917L5.51349 10.7625L12.6253 3.81432L7.12851 11.2266Z"
      fill=""/>

</svg>
