<svg width="16" height="14" viewBox="0 0 16 14" fill="" xmlns="http://www.w3.org/2000/svg">
  <path
    d="M9.58045e-05 5.95563C-0.00686438 6.56049 0.365987 7.10485 0.932475 7.31693V4.72489C0.932475 4.68759 0.951107 4.63166 0.951107 4.59436C0.3808 4.80474 0.00148784 5.3477 9.58045e-05 5.95563Z"
    fill=""/>
  <path
    d="M5.09096 9.16321H2.64807L3.56182 12.4825C3.69713 12.9891 4.15636 13.3412 4.6807 13.3404C5.05377 13.3448 5.40674 13.1717 5.63175 12.8742C5.85894 12.591 5.929 12.2129 5.81821 11.8672L5.09096 9.16321Z"
    fill=""/>
  <path d="M0.951111 4.57576H0.969743V4.55713C0.969743 4.57576 0.969743 4.57576 0.951111 4.57576Z" fill=""/>
  <path
    d="M14.3217 4.31458H14.1725V7.6712H14.3217C15.2486 7.6712 16 6.91979 16 5.99291C16 5.06599 15.2485 4.31458 14.3217 4.31458Z"
    fill=""/>
  <path
    d="M1.49194 4.7249V7.37291C1.51211 8.05865 2.07399 8.60397 2.75998 8.60369H6.15391V3.56873H2.75998C2.08866 3.56873 1.49194 4.05358 1.49194 4.7249Z"
    fill=""/>
  <path d="M6.71332 8.67826L13.613 11.4382V0.659668L6.71332 3.41958V8.67826Z" fill=""/>
</svg>
