<svg width="20" height="20" viewBox="0 0 20 20" fill="" xmlns="http://www.w3.org/2000/svg">
  <path fill-rule="evenodd" clip-rule="evenodd"
        d="M9.37451 18H10.6255V17.233C10.6255 16.298 11.2005 15.458 12.0895 15.091C13.0095 14.708 14.0145 14.896 14.6765 15.562L15.2155 16.103L16.1035 15.215L15.5585 14.671C14.8955 14.009 14.7085 13.005 15.0815 12.114C15.0815 12.114 15.0825 12.113 15.0825 12.112L15.0935 12.084C15.4575 11.201 16.2985 10.625 17.2335 10.625H17.9995V9.375H17.2335C16.2985 9.375 15.4575 8.8 15.0915 7.911C14.7065 6.991 14.8955 5.986 15.5615 5.323L16.1025 4.784L15.2155 3.897L14.6705 4.442C14.0085 5.104 13.0055 5.291 12.1145 4.919C11.2015 4.542 10.6255 3.702 10.6255 2.767V2H9.37451V2.767C9.37451 3.702 8.79951 4.542 7.91051 4.909C6.99151 5.294 5.98651 5.105 5.32351 4.438L4.78451 3.897L3.89651 4.785L4.44151 5.329C5.10351 5.991 5.29151 6.995 4.91851 7.886C4.54251 8.799 3.70151 9.375 2.76651 9.375H1.99951V10.625H2.76651C3.70151 10.625 4.54251 11.2 4.90851 12.089C5.29351 13.009 5.10451 14.014 4.43851 14.677L3.89751 15.216L4.78451 16.103L5.32951 15.558C5.99151 14.896 6.99451 14.709 7.88551 15.081C8.79851 15.458 9.37451 16.298 9.37451 17.233V18ZM10.9425 20H9.05051C8.12651 20 7.37451 19.248 7.37451 18.324V17.233C7.37451 17.086 7.25751 16.985 7.14751 16.94C7.00351 16.881 6.84951 16.869 6.74351 16.972L5.97351 17.743C5.31751 18.397 4.25151 18.399 3.59651 17.743L2.25651 16.403C1.93851 16.085 1.76451 15.663 1.76451 15.213C1.76551 14.764 1.94051 14.342 2.25951 14.024L3.02751 13.259C3.13251 13.154 3.12151 13 3.07451 12.889C3.01451 12.742 2.91451 12.625 2.76651 12.625H1.68251C0.754512 12.625 -0.000488281 11.871 -0.000488281 10.943V9.051C-0.000488281 8.126 0.751512 7.375 1.67651 7.375H2.76651C2.91351 7.375 3.01451 7.257 3.05951 7.147C3.11951 7.003 3.13151 6.848 3.02751 6.744L2.25651 5.974C1.60251 5.317 1.60251 4.251 2.25651 3.597L3.59651 2.257C3.91451 1.939 4.33551 1.765 4.78451 1.765H4.78651C5.23551 1.765 5.65851 1.94 5.97551 2.259L6.74051 3.028C6.84551 3.134 7.00051 3.122 7.11151 3.075C7.25751 3.014 7.37451 2.914 7.37451 2.767V1.683C7.37451 0.755 8.12951 0 9.05751 0H10.9495C11.8735 0 12.6255 0.752 12.6255 1.676V2.767C12.6255 2.914 12.7425 3.015 12.8525 3.06C12.9975 3.12 13.1515 3.133 13.2565 3.028L14.0265 2.257C14.6825 1.603 15.7485 1.601 16.4035 2.257L17.7445 3.598C18.0625 3.915 18.2365 4.337 18.2355 4.787C18.2355 5.235 18.0605 5.658 17.7415 5.975L16.9725 6.741C16.8675 6.846 16.8785 7 16.9255 7.111C16.9855 7.258 17.0855 7.375 17.2335 7.375H18.3175C19.2455 7.375 19.9995 8.129 19.9995 9.057V10.949C19.9995 11.874 19.2485 12.625 18.3235 12.625H17.2335C17.0865 12.625 16.9855 12.743 16.9405 12.853C16.9395 12.854 16.9275 12.884 16.9265 12.886C16.8805 12.997 16.8685 13.152 16.9725 13.256L17.7435 14.026C18.3975 14.683 18.3975 15.749 17.7435 16.403L16.4035 17.743C16.0855 18.061 15.6645 18.235 15.2155 18.235H15.2135C14.7645 18.235 14.3415 18.06 14.0245 17.741L13.2595 16.972C13.1545 16.867 12.9985 16.879 12.8885 16.925C12.7425 16.986 12.6255 17.086 12.6255 17.233V18.317C12.6255 19.245 11.8705 20 10.9425 20ZM10 8.5C9.17301 8.5 8.50001 9.173 8.50001 10C8.50001 10.827 9.17301 11.5 10 11.5C10.827 11.5 11.5 10.827 11.5 10C11.5 9.173 10.827 8.5 10 8.5ZM10 13.5C8.07001 13.5 6.50001 11.93 6.50001 10C6.50001 8.07 8.07001 6.5 10 6.5C11.93 6.5 13.5 8.07 13.5 10C13.5 11.93 11.93 13.5 10 13.5Z"
        fill=""/>
</svg>
