<svg width="16" height="16" viewBox="0 0 16 16" fill="" xmlns="http://www.w3.org/2000/svg">

    <path
      d="M7.88597 7.70724C8.94481 7.70724 9.86167 7.32749 10.6108 6.57822C11.36 5.82908 11.7397 4.91246 11.7397 3.8535C11.7397 2.79491 11.36 1.87817 10.6107 1.12878C9.86143 0.379759 8.94468 0 7.88597 0C6.82702 0 5.91039 0.379759 5.16125 1.1289C4.41211 1.87804 4.03223 2.79479 4.03223 3.8535C4.03223 4.91246 4.41211 5.8292 5.16137 6.57834C5.91064 7.32736 6.82738 7.70724 7.88597 7.70724Z"
      fill=""/>
    <path
      d="M14.629 12.3032C14.6074 11.9914 14.5637 11.6514 14.4993 11.2922C14.4344 10.9304 14.3508 10.5884 14.2507 10.2757C14.1473 9.95263 14.0067 9.63354 13.8328 9.32775C13.6524 9.01037 13.4405 8.734 13.2027 8.50659C12.9541 8.26867 12.6496 8.07739 12.2976 7.93787C11.9467 7.79907 11.5579 7.72876 11.1421 7.72876C10.9787 7.72876 10.8208 7.79578 10.5157 7.99438C10.328 8.11682 10.1084 8.25842 9.86325 8.41504C9.65365 8.54858 9.36972 8.6737 9.01901 8.78698C8.67685 8.8977 8.32944 8.95385 7.98655 8.95385C7.64365 8.95385 7.29636 8.8977 6.95384 8.78698C6.60349 8.67382 6.31956 8.5487 6.11021 8.41516C5.86741 8.26001 5.64769 8.11841 5.45714 7.99426C5.15245 7.79565 4.99437 7.72864 4.83104 7.72864C4.41503 7.72864 4.02636 7.79907 3.67565 7.93799C3.32384 8.07727 3.01928 8.26855 2.77038 8.50671C2.53271 8.73425 2.32067 9.01049 2.1405 9.32775C1.96679 9.63354 1.82617 9.95251 1.72265 10.2759C1.62268 10.5885 1.53906 10.9304 1.47412 11.2922C1.40979 11.6509 1.36609 11.9911 1.34448 12.3036C1.32324 12.6097 1.3125 12.9275 1.3125 13.2484C1.3125 14.0836 1.578 14.7597 2.10156 15.2584C2.61865 15.7505 3.30285 16.0001 4.13488 16.0001H11.8389C12.671 16.0001 13.3549 15.7506 13.8721 15.2584C14.3958 14.7601 14.6613 14.0838 14.6613 13.2483C14.6612 12.9259 14.6503 12.6079 14.629 12.3032Z"
      fill=""/>


</svg>
