<svg width="44" height="44" viewBox="0 0 44 44" fill="none" xmlns="http://www.w3.org/2000/svg">
<path fill-rule="evenodd" clip-rule="evenodd" d="M22 0C9.84974 0 0 9.84974 0 22C0 34.1503 9.84974 44 22 44C34.1503 44 44 34.1503 44 22C44 9.84974 34.1503 0 22 0Z" fill="#5181B8"/>
<path fill-rule="evenodd" clip-rule="evenodd" d="M32.4952 16.8803C32.6481 16.3729 32.4952 16 31.7673 16H29.3605C28.7485 16 28.4664 16.3221 28.3134 16.6773C28.3134 16.6773 27.0895 19.6456 25.3556 21.5738C24.7946 22.1319 24.5396 22.3095 24.2336 22.3095C24.0807 22.3095 23.8592 22.1319 23.8592 21.6245V16.8803C23.8592 16.2714 23.6816 16 23.1716 16H19.3895C19.007 16 18.777 16.2826 18.777 16.5504C18.777 17.1277 19.6439 17.2608 19.7333 18.8845V22.411C19.7333 23.1842 19.5929 23.3244 19.287 23.3244C18.471 23.3244 16.4863 20.3428 15.3092 16.931C15.0785 16.2679 14.8471 16 14.232 16H11.8252C11.1375 16 11 16.3221 11 16.6773C11 17.3115 11.816 20.4575 14.7993 24.6183C16.7881 27.4597 19.5902 29 22.1401 29C23.67 29 23.8592 28.6579 23.8592 28.0686V25.9211C23.8592 25.2368 24.0042 25.1003 24.4886 25.1003C24.8456 25.1003 25.4576 25.2779 26.8855 26.6479C28.5174 28.2716 28.7864 29 29.7044 29H32.1112C32.7988 29 33.1426 28.6579 32.9443 27.9828C32.7272 27.3099 31.9481 26.3337 30.9143 25.1764C30.3533 24.5168 29.5118 23.8064 29.2568 23.4512C28.8999 22.9946 29.0019 22.7915 29.2568 22.3857C29.2568 22.3857 32.1892 18.2756 32.4952 16.8803V16.8803Z" fill="white"/>
</svg>
