<svg width="18" height="22" viewBox="0 0 18 22" fill="none" xmlns="http://www.w3.org/2000/svg">
<path d="M15.5254 0H2.47461C1.10973 0 0 1.13025 0 2.52038V19.4783C0 20.8684 1.10973 21.9986 2.47461 21.9986H15.5254C16.8903 21.9986 18 20.8684 18 19.4783V2.52038C18.0013 1.13025 16.8903 0 15.5254 0ZM6.21556 17.3126C6.39646 17.6454 6.28036 18.0634 5.95365 18.2476C5.8497 18.3068 5.73764 18.3343 5.62694 18.3343C5.38933 18.3343 5.15983 18.2064 5.03562 17.9809L4.50101 16.9991L3.9664 17.9809C3.84355 18.2064 3.61269 18.3343 3.37508 18.3343C3.26438 18.3343 3.15233 18.3068 3.04838 18.2476C2.72167 18.0634 2.60557 17.6454 2.78647 17.3126L3.72879 15.5843L2.78647 13.8559C2.60557 13.5231 2.72167 13.1051 3.04838 12.9209C3.37508 12.7366 3.78549 12.8563 3.9664 13.1876L4.50101 14.1694L5.03562 13.1876C5.21518 12.8563 5.62694 12.7366 5.95365 12.9209C6.28036 13.1051 6.39646 13.5231 6.21556 13.8559L5.27323 15.5843L6.21556 17.3126ZM10.1253 18.3329H7.87475C7.50214 18.3329 7.19973 18.0249 7.19973 17.6454V13.5204C7.19973 13.1409 7.50214 12.8329 7.87475 12.8329C8.24736 12.8329 8.54976 13.1409 8.54976 13.5204V16.9579H10.1253C10.4979 16.9579 10.8003 17.2659 10.8003 17.6454C10.8003 18.0249 10.4979 18.3329 10.1253 18.3329ZM13.314 14.8954H13.688C14.5777 14.8954 15.3013 15.6668 15.3013 16.6141C15.3013 17.5615 14.5777 18.3329 13.688 18.3329H12.3758C12.0031 18.3329 11.7007 18.0249 11.7007 17.6454C11.7007 17.2659 12.0031 16.9579 12.3758 16.9579H13.688C13.8297 16.9579 13.9512 16.7998 13.9512 16.6141C13.9512 16.4285 13.8311 16.2704 13.688 16.2704H13.314C12.4244 16.2704 11.7007 15.499 11.7007 14.5516C11.7007 13.6043 12.4244 12.8329 13.314 12.8329H14.6263C14.9989 12.8329 15.3013 13.1409 15.3013 13.5204C15.3013 13.8999 14.9989 14.2079 14.6263 14.2079H13.314C13.1723 14.2079 13.0508 14.366 13.0508 14.5516C13.0508 14.7386 13.1709 14.8954 13.314 14.8954Z" fill="#45A969"/>
</svg>
