<svg width="44" height="44" viewBox="0 0 44 44" fill="none" xmlns="http://www.w3.org/2000/svg">
<path fill-rule="evenodd" clip-rule="evenodd" d="M22 0C9.84974 0 0 9.84974 0 22C0 34.1503 9.84974 44 22 44C34.1503 44 44 34.1503 44 22C44 9.84974 34.1503 0 22 0Z" fill="#ED1F24"/>
<path d="M26.6935 11H23.5182C20.3982 11 17.7523 13.4932 17.7523 18.3336C17.7523 21.2374 19.0336 23.3784 21.3172 24.4346L17.0558 32.5307C16.9164 32.795 17.0558 33 17.2786 33H19.2564C19.4233 33 19.5353 32.9415 19.5909 32.795L23.4626 24.8454H24.8552V32.795C24.8552 32.8824 24.9385 33 25.0499 33H26.7772C26.9441 33 27 32.912 27 32.766V11.2933C26.9999 11.088 26.8885 11 26.6935 11ZM24.8551 22.9683H23.6853C21.847 22.9683 20.0645 21.5603 20.0645 18.0404C20.0645 14.3731 21.7356 12.8772 23.4345 12.8772H24.8552V22.9683H24.8551Z" fill="white"/>
</svg>
