<svg width="19" height="22" viewBox="0 0 19 22" fill="none" xmlns="http://www.w3.org/2000/svg">
<path d="M15.8125 0H2.52038C1.13025 0 0 1.13025 0 2.52038V19.4783C0 20.8684 1.13025 21.9986 2.52038 21.9986H15.8125C17.2026 21.9986 18.3329 20.8684 18.3329 19.4783V2.52038C18.3343 1.13025 17.2026 0 15.8125 0ZM5.72963 16.9579C6.10913 16.9579 6.41713 17.2659 6.41713 17.6454C6.41713 18.0249 6.10913 18.3329 5.72963 18.3329H3.4375C3.19413 18.3329 2.96863 18.2036 2.84488 17.9946C2.72113 17.7856 2.71838 17.5258 2.83663 17.3126L4.56088 14.2093H3.4375C3.058 14.2093 2.75 13.9013 2.75 13.5218C2.75 13.1423 3.058 12.8343 3.4375 12.8343H5.72963C5.973 12.8343 6.1985 12.9635 6.32225 13.1725C6.446 13.3829 6.44875 13.6414 6.3305 13.8545L4.60625 16.9579H5.72963ZM9.39676 17.6454C9.39676 18.0249 9.08876 18.3329 8.70926 18.3329C8.32976 18.3329 8.02176 18.0249 8.02176 17.6454V13.5204C8.02176 13.1409 8.32976 12.8329 8.70926 12.8329C9.08876 12.8329 9.39676 13.1409 9.39676 13.5204V17.6454ZM13.178 16.5H12.375V17.6454C12.375 18.0249 12.067 18.3329 11.6875 18.3329C11.308 18.3329 11 18.0249 11 17.6454V13.5204C11 13.1409 11.308 12.8329 11.6875 12.8329H12.8329C13.8435 12.8329 14.6658 13.6551 14.6658 14.6658C14.6671 15.5925 13.9301 16.5 13.178 16.5V16.5Z" fill="#FC573B"/>
</svg>
